<?xml version="1.0" encoding="utf-8"?>
<!-- Generator: Adobe Illustrator 21.1.0, SVG Export Plug-In . SVG Version: 6.00 Build 0)  -->
<svg version="1.1" id="Layer_1" xmlns="http://www.w3.org/2000/svg" xmlns:xlink="http://www.w3.org/1999/xlink" x="0px" y="0px"
	 viewBox="0 0 1366 2000" style="enable-background:new 0 0 1366 2000;" xml:space="preserve">
<style type="text/css">
	.st0{opacity:0.25;}
	.st1{fill:#D6A329;}
	.st2{opacity:0.75;}
</style>
<g class="st0">
	<path class="st1" d="M1129.2,1436c-46.2,105.3-103.3,205.9-170.3,299.4c-16.6,23.2-34,46.2-56.6,63.6
		c-60.9,46.8-146.3,43.9-221.3,27.2c-71.9-16-141.4-42.7-205.6-78.8c41.4-35.5,58.2-91.3,70.4-144.5s22.7-109.1,56.2-152.1
		c17.7-22.7,41-40.6,65.5-55.7c46.7-28.7,99.8-48.3,154.5-50.8s111.1,12.9,153.5,47.7C1017.9,1426.7,1074.9,1443.1,1129.2,1436
		 M860.9,1693.8c23.2,36.3,19.5,87.6-8.6,120.2c28.9-2.1,50.5-30.3,55.1-58.9c4.6-28.7-3.8-57.6-12.1-85.4
		c22.5,31.1,27.9,73.7,13.9,109.5c14.5-5.5,24-20.1,27.6-35.2c3.6-15.1,2.1-30.9,0.7-46.3c-1.5-16.3-3.1-32.6-4.6-48.9
		c15.2,25.6,19.6,57.5,11.9,86.3c30.1-23.6,38.3-70.7,18-103.1c15.7,11.6,23.9,32.4,20.4,51.5c53.5-72,91.7-154,129.6-235.3
		c-42.2,0.5-84.5-11-120.7-32.7c-21.4-12.9-40.6-29.2-62.6-40.9c-73.1-38.9-164.5-20.7-238.2,17.2c-27.7,14.3-54.5,31.5-74.8,55.1
		c-71.1,82.6-47.9,221.1-125.9,297.2c60.4,0.1,120.9-7.7,179.3-23.2c0.2,10.5-13,15-23.4,16.4c-46,6.3-92.1,12.6-138.1,18.8
		c23.9,11.3,48.2,21.9,72.6,31.9c20.8,8.5,43.3,16.7,65.2,11.9c21.9-4.7,41.3-28,33.4-49c9.5,7.6,9.3,22.9,2.9,33.3
		c-6.4,10.4-17.2,17-27.7,23.2c15.2,12.6,39.5,6.6,53.1-7.6c13.7-14.2,19.4-34,24.6-53c8.2,28.1-9.5,61.1-37.4,69.9
		c20.7,13,49.6,2.5,65-16.6c15.3-19.1,20.5-44.1,25.1-68.2c9.3,36.6-11,78.4-45.6,93.7c22.7,9.7,50.6,0.2,66.5-18.7
		c15.9-18.9,20.9-45.1,18.2-69.6c-0.9-7.7-1.8-17.1,4.4-21.8c14,38.8,0.9,85.8-31.2,111.7c28.7,6,56.7-18.3,65.5-46.3
		C871.7,1752.8,866.3,1722.6,860.9,1693.8z"/>
	<path class="st1" d="M900.4,1401.7c57.9,18.8,110.6,58.5,171.5,59.6c-56.7,88.8-146,153.5-243.1,194.4
		c-97.1,40.9-202.1,59.6-306.8,70.7c15.9-24.9,28-52.2,35.7-80.8c6.2-23.2,9.6-47.1,16.2-70.2c18.9-66.2,65.6-123.9,126.4-156.2
		C761,1386.9,835,1380.4,900.4,1401.7 M563.2,1661.3c-5.5,19.6-13.8,38.4-24.6,55.7c95.8-12.2,191.8-30.1,281.2-66.7
		c89.4-36.6,172.5-93.1,229-171.5c2.4-3.3,3.7-9.3-0.2-10.1c-57.6-11.5-107.7-46.9-164.4-62.4c-63.1-17.3-132.9-8.2-189.5,24.6
		c-56.5,32.8-99.1,89-115.3,152.3C572.8,1609,570.4,1635.7,563.2,1661.3z"/>
</g>
<g class="st2">
	<path class="st1" d="M1139.5,280.8c27.5-1.6,55.2-0.3,82.4,3.9c6.7,1,13.6,2.3,19.7,5.2c16.6,7.9,25.2,26.5,29.8,44.3
		c4.4,17.1,6.2,34.8,5.5,52.4c-12.1-5-25.8-2.5-38.5,0.6c-12.7,3.2-25.7,7-38.6,4.5c-6.8-1.3-13.1-4.3-19-8
		c-11.2-6.9-21.1-16.1-27.6-27.5c-6.5-11.4-9.3-25.1-6.5-37.9C1149.5,305.5,1146.8,291.6,1139.5,280.8 M1223.6,310.1
		c5.2-8.9,16.6-13.7,26.6-11.2c-3.6-6-11.9-7.5-18.5-5.4c-6.6,2.1-11.9,7.1-16.9,11.8c4.2-8.2,12.7-14,21.9-14.8
		c-2.8-2.5-6.9-2.9-10.5-2.1c-3.6,0.9-6.8,2.9-10,4.9c-3.3,2.1-6.6,4.2-9.9,6.3c3.8-6,10.1-10.4,17.1-11.9c-8.3-3.9-19.3-0.5-24,7.3
		c0.8-4.6,4.3-8.6,8.8-9.9c-21.2-3.6-42.8-2.9-64.3-2.2c4.7,9,6.8,19.2,6.1,29.3c-0.4,6-1.8,11.8-1.9,17.8
		c-0.4,19.8,13.4,37.4,29.5,49c6.1,4.4,12.6,8.2,19.9,10c25.3,6.2,52.4-13.7,77.1-5.3c-6.5-12.9-14.7-25-24.4-35.8
		c2.2-1.2,4.6,1.2,6,3.2c6.3,9.1,12.7,18.3,19,27.4c-0.2-6.3-0.5-12.7-1.1-19c-0.4-5.4-1.1-11-4.5-15.2c-3.4-4.2-10.4-5.8-14.1-1.8
		c0.6-2.9,3.9-4.5,6.8-4.2c2.9,0.2,5.5,1.8,8,3.4c1-4.6-2.9-9.1-7.4-10.5c-4.5-1.4-9.4-0.4-14,0.5c5.1-4.8,14.1-4.6,19,0.4
		c0.5-5.8-4.8-10.9-10.6-12.1c-5.7-1.2-11.6,0.4-17.3,2c6.8-6,17.9-6.1,24.9-0.4c-0.4-5.9-5.4-10.8-11.2-12.2
		c-5.7-1.3-11.9,0.4-16.8,3.7c-1.6,1-3.5,2.2-5.1,1.4c6.8-7.2,18.2-9.5,27.2-5.4c-1.8-6.8-10.1-10.1-17-9S1229.1,305.8,1223.6,310.1
		z"/>
	<path class="st1" d="M1156.9,333.3c-2.3-14.4,0.5-30-5.9-43.1c25.1,2.5,48.6,14.5,67.8,30.8c19.3,16.3,34.6,36.7,48.4,57.8
		c-7-0.7-14.2-0.3-21.1,1.1c-5.6,1.2-11.1,3.1-16.7,4.2c-16.2,3.1-33.6-0.6-47-10.1S1159.5,349.6,1156.9,333.3 M1248.9,377.2
		c4.8-0.9,9.7-1.2,14.6-0.8c-13-19.1-27.2-37.7-44.7-52.8c-17.5-15.1-38.6-26.7-61.4-30.3c-1-0.1-2.4,0.2-2.1,1.1
		c3.8,13.5,1.7,28.1,4.5,41.9c3.1,15.3,12.7,29.3,25.8,37.8c13.1,8.5,29.7,11.5,45,8.1C1236.7,380.8,1242.6,378.4,1248.9,377.2z"/>
</g>
</svg>
