<?xml version="1.0" encoding="utf-8"?>
<!-- Generator: Adobe Illustrator 21.1.0, SVG Export Plug-In . SVG Version: 6.00 Build 0)  -->
<svg version="1.1" id="Layer_1" xmlns="http://www.w3.org/2000/svg" xmlns:xlink="http://www.w3.org/1999/xlink" x="0px" y="0px"
	 viewBox="0 0 1366 2000" style="enable-background:new 0 0 1366 2000;" xml:space="preserve">
<style type="text/css">
	.st0{opacity:0.25;}
	.st1{fill:#D6A329;}
</style>
<g class="st0">
	<path class="st1" d="M852.8,1710.8c-30.1,1.2-60.1-15.5-75-41.6c-14.9-26.1-13.9-60.5,2.5-85.8c9.7-14.9,23.9-26.2,38.5-36.3
		c75.3-52.1,170.2-77.3,260.7-62.9c25.6,4.1,51,11.4,73.4,24.5c53.1,31,83.7,92.5,87.9,153.8c4.2,61.3-15.1,122.3-43.4,176.8
		c-16.7,32.3-37,63.3-64.7,87c-27.6,23.7-63.3,39.4-99.6,37.6c-20.6-1-42-8.4-54.8-24.5c-21.5-27-12.1-67.8,7.4-96.2
		c19.5-28.4,47.5-50.5,65.7-79.8c18.2-29.3,23.7-71.7-1.3-95.5c-25.9-24.6-68.5-15.8-100,1S888.4,1709.4,852.8,1710.8
		 M1131.6,1913.3c26.2-25,45.8-56.2,61.8-88.6c20.6-41.6,35.8-86.5,38.1-132.8c2.3-46.3-9.2-94.3-37.6-131
		c-38.6-49.9-104.4-73.3-167.5-72.5c-63.1,0.7-124,22.8-180.9,50.1c32.6-4.8,67.3,12.2,83.6,40.9c16.2,28.7,12.9,67.2-8,92.7
		c20.5-11.5,41.3-23.2,64.3-28.2c23-5,48.8-2.3,67,12.5c23.2,19,28.6,53.6,20.8,82.6c-7.8,29-26.2,53.8-44.3,77.7
		c27.3-13.5,62.7-8.2,84.9,12.7C1136,1850.3,1143.4,1885.3,1131.6,1913.3 M777.7,1618c-1.4,6.2-2,12.6-1.5,19
		c1.7,21.8,16.8,40.8,35.4,52.1c26.9,16.3,64.6,17.4,87.8-3.8c7.8-7.1,13.5-16.1,18.1-25.5c10.8-22.2,15.5-49.1,5.2-71.6
		c-9.5-20.9-31.4-35.1-54.2-37.5c-22.9-2.3-46.2,6.4-63.4,21.7C791.6,1584.4,781.6,1600.4,777.7,1618 M976.2,1911.8
		c5,23,29,37.3,52.3,41.1c23,3.7,47.6-0.6,66.8-13.8c19.2-13.3,32.1-35.9,31.7-59.2c-0.5-23.3-15.5-46.2-37.5-54
		c-10.8-3.8-22.6-4.1-34.1-4.1c-15.7-0.1-32.3,0.3-45.8,8.3c-16.6,9.9-25,29.1-30.3,47.7C976.2,1888.9,973.8,1900.6,976.2,1911.8z"
		/>
	<path class="st1" d="M840.9,1676.6c-25.8-3.9-48.6-29.2-43.8-54.8c1.5-7.8,5.2-15,9.7-21.4c15.5-22.1,43.4-36.6,69.9-31.4
		c5.4,1.1,10.7,2.9,15.3,6c7.2,4.9,12.2,12.7,15.1,21c7.1,19.7,3,43-10.3,59.1C883.6,1671.2,861.6,1679.7,840.9,1676.6
		 M901.6,1619.3c0.7-6.7,0.2-13.7-2.3-20c-6.7-16.8-27.4-25.2-45.1-21.5s-32.1,17.1-41.3,32.7c-4.3,7.3-7.7,15.6-7,24
		c0.7,8.5,5.5,16.4,11.9,22.1c14,12.6,35.8,15.1,52.9,7.1C887.8,1655.7,899.6,1638,901.6,1619.3z"/>
	<path class="st1" d="M1036.4,1841.1c9.1-3,19-2.2,28.2,0.3c23,6.2,44.4,26,43.4,49.8c-0.7,16.8-12.7,31.9-28,39.2s-33,7.6-49.5,4.1
		c-12.4-2.6-25.3-8.1-31.7-19c-9.7-16.6-0.6-37.8,11.1-53C1017.1,1853.4,1025.5,1844.8,1036.4,1841.1 M1032,1924.3
		c16.3,4.2,34.6,3.7,48.8-5.4c8.3-5.4,14.9-14,16.5-23.8c3.2-20-14.8-38-34.2-44c-5.2-1.6-10.8-2.7-16.2-2.1
		c-13.6,1.6-23.6,13-31.8,24c-6.2,8.3-12.4,18-10.7,28.1C1006.5,1913.6,1019.7,1921.1,1032,1924.3z"/>
</g>
</svg>
