<?xml version="1.0" encoding="utf-8"?>
<!-- Generator: Adobe Illustrator 21.1.0, SVG Export Plug-In . SVG Version: 6.00 Build 0)  -->
<svg version="1.1" id="Layer_1" xmlns="http://www.w3.org/2000/svg" xmlns:xlink="http://www.w3.org/1999/xlink" x="0px" y="0px"
	 viewBox="0 0 1366 2000" style="enable-background:new 0 0 1366 2000;" xml:space="preserve">
<style type="text/css">
	.st0{opacity:0.25;}
	.st1{fill:#D6A329;}
	.st2{opacity:0.75;}
</style>
<g class="st0">
	<path class="st1" d="M224.6,1502.9c-12.2-39.9-24.4-81.6-17.2-122.7c7.2-41.1,40-80.8,81.7-81.3c12.9-0.1,25.5,3.4,37.9,7.1
		c155.9,46,304,114.7,450.7,184.6c86.1,41,137.6,144.1,118.8,237.6c-5.7,28.4-20.2,58.6-47.6,67.9c-14.4,4.9-30.2,3.2-45.3,1.2
		c-159.1-21-314.9-67.3-459.7-136.6c-17.8-8.5-35.6-17.5-50.7-30.1C255.4,1599.1,239,1549.7,224.6,1502.9 M679.3,1599.4
		C525,1542,371.2,1483,218.1,1422.4c-5.9,10.8-1.5,24.9,7.1,33.8c8.6,8.8,20.4,13.6,31.9,18.1c27.6,10.9,55.2,21.8,82.9,32.7
		c111.6,44,223.6,88.2,339.9,117.5c8.6,2.2,19,3.8,25.2-2.6c-14.6-18.1,9.3-54.7-11.7-64.6c-152.5-71.4-311.3-129.7-473.8-174
		c-7.4,4.6-7.2,16.2-1.9,23.1c5.3,6.9,13.8,10.4,21.9,13.5c152.9,58.9,305.8,117.8,458.7,176.7
		C695.4,1603.2,685.9,1601.8,679.3,1599.4 M265.1,1342.9c-11.8-1.7-25-2.7-34.5,4.5c-9.5,7.2-9.8,25.6,1.7,28.7
		c151.9,40.4,300,95.1,441.8,163.1c8.3,4,17.2,8.1,26.3,6.8c9.1-1.3,17.5-10.8,14.2-19.4c-2.1-5.2-7.5-8.2-12.6-10.7
		c-41.7-20.6-83.5-41.1-125.4-61.3C476.9,1406.3,374.8,1358.6,265.1,1342.9 M265.6,1569.2c0.6,33.3,33.5,55.7,63,71
		c136.2,70.5,284.5,117.6,436.5,138.7c-1.3-18.8-16-34.4-32.8-42.7c-16.9-8.3-35.9-10.7-54.5-13.8
		C532.8,1698.2,400.3,1628.1,265.6,1569.2 M733.8,1722.9c2.9-13.7-5.6-27.8-17.2-35.8c-11.6-7.9-25.7-11.1-39.3-14.2
		c-149.3-34-294.8-84.7-432.8-150.9c-0.8,23.3,23.8,38.1,45,47.8C432.6,1634.8,578.2,1700.6,733.8,1722.9 M720.7,1673.1
		c-2.1-16.3-15-29.5-29.7-36.7s-31.3-9.7-47.4-12.8c-64-12.3-125.1-36.4-185.7-60.3c-75.8-29.9-151.6-59.8-227.3-89.8
		c-6.6,22.9,19.1,41.2,40.9,50.9C415.7,1588.9,566.5,1638.8,720.7,1673.1 M246.1,1330.2c159.7,17,302.7,101.5,447.8,170.3
		c11.4,5.4,23.2,10.8,35.9,11.5c12.6,0.7,26.4-4.6,32.2-15.8C624.4,1426,481.1,1366.7,334.1,1319
		C303.7,1309.2,263.1,1303.1,246.1,1330.2 M844.6,1561.5c-13.9-23.6-31.8-48.9-58.8-53.7c-31.1-5.5-61,20.6-70,50.9
		s-2.1,62.9,7,93.1c8.2,27.2,18.1,53.9,29.7,79.8c11.7,26.2,28.9,54.5,57.1,59.7c30.5,5.6,59-19.6,71.8-47.9
		c10.8-24,14.2-51.3,9.6-77.2c-3-16.5-9.1-32.3-16-47.6C866,1599,855.6,1580.1,844.6,1561.5z"/>
	<path class="st1" d="M821.4,1775c-22,3.4-39.5-18-49.7-37.8c-22.3-43.6-34.3-92.4-34.7-141.4c-0.1-12.1,0.6-24.7,6.5-35.2
		c10.6-19,38.6-25.6,56.6-13.2c30.2,20.7,52.8,52.2,62.8,87.4c10,35.2,7.2,73.9-7.6,107.3C848.7,1757.2,837.7,1772.5,821.4,1775
		 M828.6,1761.4c3.8-2.5,6.5-6.5,8.9-10.4c18.5-30.9,24.8-68.9,17.3-104.2c-7.5-35.2-28.8-67.4-58.3-88c-4.1-2.9-8.4-5.6-13.3-6.7
		c-13.4-3-26.9,7.3-32.1,20c-5.2,12.7-4.1,27-2.5,40.6c5.2,45.2,14.9,91,39.3,129.4c4.5,7.1,9.7,14,16.9,18.4
		C811.9,1764.8,821.6,1766,828.6,1761.4z"/>
</g>
<g class="st2">
	<path class="st1" d="M1198.5,392.7c3,9.6,5.9,19.7,4.1,29.6c-1.7,9.9-9.6,19.5-19.7,19.6c-3.1,0-6.2-0.8-9.1-1.7
		c-37.6-11.1-73.3-27.7-108.7-44.5c-20.8-9.9-33.2-34.7-28.6-57.3c1.4-6.8,4.9-14.1,11.5-16.4c3.5-1.2,7.3-0.8,10.9-0.3
		c38.4,5.1,75.9,16.2,110.8,32.9c4.3,2.1,8.6,4.2,12.2,7.3C1191,369.4,1195,381.4,1198.5,392.7 M1088.8,369.4
		c37.2,13.8,74.3,28.1,111.2,42.7c1.4-2.6,0.4-6-1.7-8.1c-2.1-2.1-4.9-3.3-7.7-4.4c-6.7-2.6-13.3-5.3-20-7.9
		c-26.9-10.6-53.9-21.3-81.9-28.3c-2.1-0.5-4.6-0.9-6.1,0.6c3.5,4.4-2.3,13.2,2.8,15.6c36.8,17.2,75,31.3,114.2,41.9
		c1.8-1.1,1.7-3.9,0.5-5.6c-1.3-1.7-3.3-2.5-5.3-3.3c-36.9-14.2-73.7-28.4-110.6-42.6C1085,368.5,1087.2,368.8,1088.8,369.4
		 M1188.7,431.2c2.8,0.4,6,0.6,8.3-1.1c2.3-1.7,2.4-6.2-0.4-6.9c-36.6-9.7-72.3-22.9-106.5-39.3c-2-1-4.2-2-6.3-1.6
		c-2.2,0.3-4.2,2.6-3.4,4.7c0.5,1.3,1.8,2,3,2.6c10.1,5,20.1,9.9,30.2,14.8C1137.6,415.9,1162.3,427.4,1188.7,431.2 M1188.6,376.7
		c-0.1-8-8.1-13.4-15.2-17.1c-32.8-17-68.6-28.3-105.2-33.4c0.3,4.5,3.8,8.3,7.9,10.3c4.1,2,8.7,2.6,13.1,3.3
		C1124.2,345.6,1156.1,362.5,1188.6,376.7 M1075.7,339.6c-0.7,3.3,1.4,6.7,4.1,8.6c2.8,1.9,6.2,2.7,9.5,3.4
		c36,8.2,71.1,20.4,104.4,36.4c0.2-5.6-5.7-9.2-10.8-11.5C1148.3,360.8,1113.2,345,1075.7,339.6 M1078.8,351.6
		c0.5,3.9,3.6,7.1,7.2,8.9c3.6,1.7,7.5,2.3,11.4,3.1c15.4,3,30.2,8.8,44.8,14.5c18.3,7.2,36.5,14.4,54.8,21.6
		c1.6-5.5-4.6-9.9-9.9-12.3C1152.4,371.9,1116,359.9,1078.8,351.6 M1193.3,434.3c-38.5-4.1-73-24.5-108-41.1
		c-2.8-1.3-5.6-2.6-8.6-2.8s-6.4,1.1-7.8,3.8c33.2,16.9,67.7,31.2,103.2,42.7C1179.4,439.3,1189.2,440.8,1193.3,434.3 M1049,378.5
		c3.4,5.7,7.7,11.8,14.2,12.9c7.5,1.3,14.7-5,16.9-12.3s0.5-15.2-1.7-22.5c-2-6.6-4.4-13-7.2-19.2c-2.8-6.3-7-13.1-13.8-14.4
		c-7.4-1.4-14.2,4.7-17.3,11.6c-2.6,5.8-3.4,12.4-2.3,18.6c0.7,4,2.2,7.8,3.9,11.5C1043.8,369.5,1046.3,374,1049,378.5z"/>
	<path class="st1" d="M1054.6,327c5.3-0.8,9.5,4.3,12,9.1c5.4,10.5,8.3,22.3,8.4,34.1c0,2.9-0.2,6-1.6,8.5
		c-2.6,4.6-9.3,6.2-13.6,3.2c-7.3-5-12.7-12.6-15.1-21.1c-2.4-8.5-1.7-17.8,1.8-25.9C1048,331.3,1050.6,327.6,1054.6,327
		 M1052.8,330.3c-0.9,0.6-1.6,1.6-2.1,2.5c-4.5,7.5-6,16.6-4.2,25.1s6.9,16.2,14.1,21.2c1,0.7,2,1.3,3.2,1.6
		c3.2,0.7,6.5-1.8,7.7-4.8c1.3-3.1,1-6.5,0.6-9.8c-1.3-10.9-3.6-21.9-9.5-31.2c-1.1-1.7-2.3-3.4-4.1-4.4
		C1056.9,329.5,1054.5,329.2,1052.8,330.3z"/>
</g>
</svg>
