<?xml version="1.0" encoding="utf-8"?>
<!-- Generator: Adobe Illustrator 21.1.0, SVG Export Plug-In . SVG Version: 6.00 Build 0)  -->
<svg version="1.1" id="Layer_1" xmlns="http://www.w3.org/2000/svg" xmlns:xlink="http://www.w3.org/1999/xlink" x="0px" y="0px"
	 viewBox="0 0 1366 2000" style="enable-background:new 0 0 1366 2000;" xml:space="preserve">
<style type="text/css">
	.st0{opacity:0.75;}
	.st1{fill:#D6A329;}
</style>
<g id="Allora_3" class="st0">
	<path class="st1" d="M1054.5,659c42.5,40.3,62.2,109.7,70.8,177c8.6,67.2,8.5,136.5,22.4,202.2c20,94.7,68.3,176.3,125.7,240.4
		c54.5,60.8,76.8,160.1,71.1,252.9s-36.1,180.2-72.6,260.4c-25.1,55.1-54.7,109.7-97.6,141.5c-47.3,35-104.4,37.7-158.9,38.3
		c-108.2,1.2-230-10.3-301.2-115.8c-59.6-88.4-64.9-218.9-48.1-334.3c16.8-115.3,52.3-225.6,63.6-342
		c-32.1,56.7-64.6,114.1-106.8,158.4c-42.2,44.3-95.8,74.7-149.9,68.2c23.7,129,27.5,264.1,11.1,395c-0.9,6.8-2.2,14.5-6.8,17.9
		c-3.6,2.7-8.1,2-12.2,1.2c-27.4-5.4-54.9-10.7-82.3-16.1c5.9-113.1,11.8-226.1,17.8-339.2c1.8-34.6-2.7-80.6-29.1-86.9
		c-111.9-26.4-201-139.8-259-266.4C39.3,952,4.7,762.4,18.4,577.5S94.7,213.6,195.5,81.4c52.8-69.2,119.1-133.6,133.1-229.1
		c9.7-65.8,72.3-88.7,123.6-98.3c6.2,68.1-17.2,134.7-43.9,194c-37.7,83.9-83.2,162-135,232.1C193.2,288.6,92.7,388.9,68.7,535.7
		c-14.5,88.5,2,180.3,22.9,266.6c37,152.7,96.8,311.5,208.4,380.6c-50.9-89.1-31.9-223.9,27.7-303.4
		c59.7-79.5,149.8-110.1,235.4-107.7c61.1,1.7,126.5,21.8,166.1,81.9c8-85.9,23.9-186.5,84.9-222c24.3-14.2,51.8-14.9,78.5-15.3
		C948.7,615.4,1009.2,616.1,1054.5,659 M1027.4,743.2c-38.8-36.5-96.5-34.6-133.8,4.4c-25.9,27.1-40.9,67.8-52.5,108.3
		c-10.6,37.3-19,75.6-25.2,114.6c-1.3,8.1-2.4,16.5-0.7,24.5c31.2,143.7,27.7,299.8-10,440.9c-19.7,73.8-49,147.7-42.5,225.4
		c5.6,67,38,126.5,78.6,168.7c61.4,63.7,143.4,92.8,221.3,78.5c47.6-8.7,95.1-34.7,125.4-83c31.5-50.2,40.9-117.7,43.2-182.2
		c3.1-88.9-6.7-182.9-47.8-254.3c-27.8-48.2-68.5-83.6-90.9-136.3c-22.3-52.2-23.8-115-19.6-174.4c4.2-59.4,13.6-118.6,11.1-178.1
		C1081.4,840.6,1064.7,778.3,1027.4,743.2 M1282,1309c-57.7-74.7-117.4-153.6-141.4-254.4c-16.4-68.6-14.8-142-23.3-212.9
		c-8.5-71-30.8-145.4-78.8-181.6c-31.3-23.6-68.8-27.5-105-30.8c-44.8-4.1-93.5-6.9-130.6,25.8c-27,23.8-43.6,63.4-52,104.2
		c-8.4,40.8-9.5,83.5-11.5,125.6c-3.6,76.8-10.7,154.8-35.1,225s-68.4,132.4-125.6,153.7c-36,13.4-74.7,9.9-111-1.7
		c-35.4-11.3-69.4-30.1-100.1-55.4c31.8,58.3,63.7,116.6,95.5,174.9c3.4,6.3,7.5,13.1,13.4,14.2c66.1,12.1,127.6-45.4,173.8-107.8
		c78.4-106,137.2-236,170.3-376.3c13-55.3,23.2-114.7,53.8-156.8c45.3-62.3,131.7-62.3,177-0.1c44.9,61.7,44.2,157.1,36.5,241.3
		s-18.8,174.8,12.2,249.4c22.2,53.2,62.6,89.3,90.5,137.8c45.8,79.5,54.2,185.3,47.8,284.1c-3.2,50-10.2,101.1-30.9,143.5
		c-30.1,61.9-85.8,96.9-141.7,107.8c-80.9,15.9-166.6-14.2-230.2-80.9c-44.5-46.6-79.1-113.7-82.4-187.7
		c-3.4-74.7,24.4-144.9,43.4-215.6c36.8-136.8,41.5-287.8,13.4-428c-33.6,55.7-58,120.5-71.3,188.9
		c-15.1,78.1-30.3,156.1-45.4,234.2c-12.6,65.1-25.3,130.8-27.1,197.8c-1.8,67.1,8.1,136.5,37.2,192c29.6,56.3,77,94,127.1,114.8
		c50.1,20.8,103.2,26,155.9,28c58.4,2.3,119.2,0.1,171.6-33.5c68.8-44.2,111.7-135.6,141.3-227.3c20.7-64.1,37-132,37.4-201.5
		C1336.9,1430,1320,1358.2,1282,1309 M346.4,1145.6c13.1,46.4,50.3,73.2,86.2,89.9c57.3,26.8,124.1,37.4,177.2-1.4
		c37.5-27.4,62.9-75.6,84.6-123.8c7.9-17.5,15.6-36.1,16.2-56.4c0.5-16.8-4.1-33-8.7-48.7c-21.1-71.5-51.1-149.2-107.4-172.7
		c-29.8-12.4-62.6-7-92.5,5.2c-46.2,18.7-88.4,53.3-121.3,99.2c-12,16.8-23,35.4-29.3,56.8c-6.5,21.8-7.9,45.5-9.3,68.8
		C340.5,1090.4,339,1119.3,346.4,1145.6 M177.7,122.2c-25.8,37.5-48.1,79-67.4,122.5C17.8,453.5-2.8,714.9,60.5,941.2
		c9.7,34.5,21.1,68.2,33.7,101.1c29.8,78,66.1,152.9,114.9,212.7c48.8,59.9,110.9,104,177.7,113.1
		c-13.9-80.4-55.3-152.2-110.9-192.4c-58.4-42.1-103.5-110.5-135.6-186.4S88.5,830.1,72.1,746.3c-13.1-67.1-24.3-136.8-15.3-205
		c9-68.1,37.7-129.4,72-182.3s74.7-98.6,112-147.9c69.6-91.9,129.2-196.6,176.3-310c16.9-40.6,32.6-85.9,26.4-131.3
		c-23.6,8.4-47.2,16.8-70.8,25.2c-12.3,4.4-26.9,12-28.4,28.4c-5.6,62.2-32.8,117.9-64.9,164.8C247.4,35.1,209.9,75.4,177.7,122.2
		 M468.6,843.4c41.4-23.6,88.8-39.7,131.6-20.8c32,14.1,57.6,46.6,75.7,83.6s29.4,78.7,40.5,120c5.3-40.8,10-81.8,13.9-122.8
		c3.1-32.3-17.1-60.7-38.7-77.3c-52-39.9-115.9-39.9-176.4-38.7c-25.1,0.5-50.5,1.1-74.5,10.5c-45.8,18-80.4,65.4-112.8,110.9
		c-21.4,30.1-43.6,61.9-51.8,101.4c-12.1,57.9,8.4,118.8,34.6,168.2c26.3,49.4,59.1,93.9,76.8,149.3
		c17.1,53.6,18.7,113.2,18.3,171.3c-0.7,100.9-6.5,201.7-17.3,301.6c27.4-13.1,59.8-6.7,82.9,16.2c14.6-87.7,18.8-178.3,12.3-267.6
		c-5.1-70.7-17.4-142.4-47.7-201.6c-14.2-27.8-32.1-52.1-47.6-78.7c-26.5-45.4-46.3-98.2-52.8-154.5s1.1-116.1,25.1-163.8
		C385.9,900.7,426.5,867.4,468.6,843.4z"/>
</g>
</svg>
