<?xml version="1.0" encoding="utf-8"?>
<!-- Generator: Adobe Illustrator 21.1.0, SVG Export Plug-In . SVG Version: 6.00 Build 0)  -->
<svg version="1.1" id="Layer_1" xmlns="http://www.w3.org/2000/svg" xmlns:xlink="http://www.w3.org/1999/xlink" x="0px" y="0px"
	 viewBox="0 0 1366 4000" style="enable-background:new 0 0 1366 4000;" xml:space="preserve">
<style type="text/css">
	.st0{opacity:0.25;}
	.st1{fill:#D6A329;}
	.st2{opacity:0.75;}
</style>
<g id="Allora_2" class="st0">
	<path class="st1" d="M492.3,712.5c7.5-13.1,15.8-25.7,24.8-37.8c2.3-3,4.6-6.1,7.7-8.4c3.1-2.2,7-3.6,10.7-2.9
		c3.1,0.6,5.8,2.7,8.3,4.6c20.2,15.6,41,30.3,62.3,44.1c4.8,3.1,10,6.5,12,11.9c2.9,7.5-1.2,15.6-5.2,22.6
		c-4.3,7.4-8.6,14.9-12.8,22.3c-2.5,4.3-4.9,8.6-8.4,12.1c-3.4,3.5-7.9,6.3-12.9,6.6c-5.1,0.3-10-2-14.4-4.4
		c-24-13-44.3-31.8-64.1-50.6c-2.9-2.7-5.8-5.5-7.6-9S490.4,716,492.3,712.5 M617.2,725.9c-0.9-2.4-2.5-4.4-4.3-6.2
		c-5-5.1-11-8.9-17-12.7c-18.4-11.9-36.3-24.6-53.6-38.2c-1.7-1.3-3.4-2.7-5.5-3.4c-3.7-1.3-7.9-0.1-11.1,2.2
		c-3.2,2.3-5.6,5.5-7.9,8.7c-8.5,11.8-16.3,24-23.5,36.6c-1.8,3.1-1.3,7.1,0.4,10.3s4.3,5.7,6.9,8.1c18.5,17.5,37.2,35,59,48.1
		c4,2.4,8.2,4.7,12.8,5.8s9.7,0.7,13.7-1.8c3.6-2.3,5.8-6.1,8-9.7c5.9-9.9,11.7-19.7,17.6-29.6C616,738.5,619.4,732,617.2,725.9z"/>
	<path class="st1" d="M601.3,722.2c1.8,1.4,2.6,3.9,2.5,6.2s-1,4.5-1.9,6.6c-2.3,4.9-5.2,9.6-8,14.2c-2.5,4.1-5.1,8.1-7.6,12.2
		c-2.4,3.8-5.3,8-9.8,8.8c-3.2,0.5-6.3-0.8-9.2-2.3c-21.5-10.8-39.8-26.9-57.8-42.8c-1-0.9-2.1-1.9-2.6-3.2
		c-0.9-2.2-0.1-4.7,0.8-6.9c1.1-3,2.3-5.9,3.9-8.7c1.6-2.6,3.5-4.9,5.5-7.3c2.6-3,5.1-6,7.7-9.1c1.8-2.2,3.7-4.3,6-5.9
		c4.3-3,10.1-3.7,15-1.9c2.4,0.9,4.5,2.4,6.6,3.8C569,697.6,585.4,709.6,601.3,722.2 M569.2,767.1c2,1,4.2,2,6.4,1.6
		c3-0.5,5-3.1,6.8-5.5c6.5-9.3,12.4-19,17.5-29.1c0.9-1.7,1.8-3.5,2-5.5c0.2-1.9-0.3-4.1-1.8-5.3c-15.7-13-32.1-25.2-49.2-36.4
		c-1.8-1.2-3.6-2.4-5.6-3.1c-4.1-1.5-8.8-1.1-12.5,1.1c-2.7,1.6-4.8,4-6.8,6.4c-6.5,7.6-13.1,15.4-16.5,24.8c-0.8,2.4-1.3,5.4,0.6,7
		C528.4,739.6,547.1,756.2,569.2,767.1z"/>
	<path class="st1" d="M579.4,669.7c6.1-1.5,13,3.6,13.4,9.9c3.3-1.7,7.5-1.4,10.5,0.9c2.9,2.2,4.4,6.2,3.6,9.9
		c2.7-2.1,6.8-2.2,9.6-0.3c2.8,1.9,4.2,5.8,3.2,9.1c2.6-2,6.7-1.8,9.2,0.3c2.5,2.2,3.2,6.2,1.6,9.1c3.6-1.7,8.4-0.4,10.7,2.8
		c2.3,3.3,1.9,8.2-1,11.1c3.2,0.4,6.2,2.6,7,5.6c0.8,3.1-1.5,6.8-4.6,7c2.6,1.3,5.1,3,6.5,5.5c1.4,2.5,1.6,5.9-0.2,8.2
		s-5.7,2.7-7.6,0.5c0,3.2,3.9,5.3,4,8.5c0.1,2.1-1.7,3.9-3.7,4.7c-2,0.7-4.2,0.6-6.3,0.4c3.8,1,5.7,6.2,3.6,9.5
		c-2.1,3.3-7.3,4-10.3,1.4c3.1,2.1,5.4,6,4.4,9.5s-6.5,5.4-8.7,2.4c1.9,2.3,2.5,5.7,1.1,8.3s-5.3,3.6-7.6,1.8c2.6,1.9,3.2,6,1.3,8.5
		s-6.1,3.1-8.6,1.1c3.4,1.3,3.2,6.9,0.1,8.8c-3.1,1.9-7.4,0.6-9.9-2c-0.1,3.1-0.2,6.3-1.7,9.1c-1.5,2.7-4.9,4.7-7.8,3.5
		c-4-1.7-4.2-7.7-7.8-10.1c0.4,2.7-1,5.6-3.4,7c-2.4,1.4-5.6,1.2-7.7-0.5c-3.4-2.6-3.6-7.6-3.6-11.9c-4,0.9-6.6,7.3-10.4,5.6
		c-1.3-0.6-2-2.1-2.5-3.5c-1.4-3.6-2.5-7.4-3.2-11.3c-1.8,4.1-7.7,5.5-11.1,2.7c-3.5-2.8-3.5-8-3.3-12.5c-2.2,2.2-5.7,2.8-8.5,1.4
		c-2.7-1.3-4.5-4.5-4.1-7.5c0.2-1.9-2.8-1.5-4.7-1.2c-3.3,0.6-6.6-1.7-8.3-4.6c-1.6-3-2-6.4-2.3-9.8c-2.4,2.9-6.8,3.9-10.3,2.4
		s-5.7-5.4-5.3-9.2c-4,2.2-9.4,1.5-12.7-1.7c-3.3-3.2-4.2-8.5-2.2-12.6c-3.4,2.3-8.6,1.6-11.2-1.7s-2.2-8.5,0.8-11.3
		c-4.1,0.8-9-0.7-10.9-4.5c-2-3.7,0.3-9.3,4.5-9.8c-4.4-0.2-8.2-4.5-7.8-8.9c0.4-4.4,4.8-8,9.2-7.5c-1.5-1.7-3.1-3.4-3.9-5.5
		s-0.6-4.8,1.1-6.3c3-2.8,8.2-0.4,11.8-2.3c-2.7-1.3-4.2-4.5-3.6-7.4c0.7-2.9,3.5-5.1,6.5-5.1c2.7,0,5.4,1.6,7.8,0.5
		c-3.7-1.4-5.5-6.6-3.4-10c2.1-3.4,7.5-4.1,10.4-1.4c-1.5-2.5-3-5.6-2-8.3c1-2.6,3.9-3.9,6.6-3.9c2.7,0.1,5.3,1.2,7.8,2.3
		c-2.3-3-4.6-7-2.7-10.3c1.4-2.4,4.6-3.1,7.3-2.4c2.7,0.7,4.9,2.5,7,4.2c-2.8-4.8,1.5-12,7-11.9c4.5,0.1,8,3.9,10.3,7.8
		c0.5-4.2,6.3-6.2,10.1-4.2c3.8,1.9,5.8,6.2,6.7,10.4c3.4-2.3,8.3-2.3,11.6,0.1s5,7,3.9,10.9c2.6-3.1,7.5-3.9,11-1.8
		C579.3,661.2,580.9,665.9,579.4,669.7 M468.8,705.5c-2.9,0-5.9,0.1-8.4,1.5c-2.5,1.4-4.2,4.7-2.9,7.3c0.7,1.3,1.9,2.1,3.1,2.8
		c2.6,1.4,5.4,2.3,8.3,2.6c-1.8,2.8-6.4,2.2-8.4,4.8c-1.4,1.8-1,4.5,0.5,6.2c1.5,1.6,3.9,2.3,6.2,2c1.2-0.1,2.4-0.4,3.4,0
		c1.1,0.4,1.9,1.9,1,2.7c-1.9,1.9-2.9,4.9-2.1,7.5c0.8,2.6,3.6,4.5,6.3,3.9c1.3-0.3,2.5-1.2,3.8-1.5c1.3-0.4,3.1,0.1,3.3,1.5
		c-2.5,2.8-2.7,7.3-0.6,10.4s6.5,4.4,9.9,3c2-0.8,4.3-2.3,6-1c-1.8,2.2-1.8,5.5-0.2,7.8c1.7,2.2,4.9,3.1,7.5,2
		c1.4-0.6,2.6-1.7,4-2.1c1.5-0.4,3.4,0.3,3.4,1.9c0,3,0.1,6.1,1.6,8.7s4.8,4.4,7.5,3c2.2-1.1,4.8-3.9,6.3-2
		c-1.5,2.7-1.9,6.2-0.3,8.9c1.6,2.6,5.6,3.8,8,1.9c0.8-0.6,1.4-1.5,2.2-2s2.2-0.5,2.6,0.4c-0.8,3.3-1.7,6.9-0.4,10.2
		c1.2,3.2,5.5,5.4,8.3,3.4c1.4-1,2-2.8,3.4-3.8s4-0.4,3.7,1.3c-0.6,3.3-1.2,6.8,0.2,9.8c1.4,3,5.6,4.9,8.1,2.7
		c1.9-1.6,3.4-5.3,5.6-4.1c1.7,1,0.8,3.5,0.4,5.5c-0.6,3.8,2.8,7.7,6.7,7.5s6.8-4.6,5.6-8.3c3,0.3,4.4,3.6,5.6,6.3
		c1.2,2.7,3.9,5.7,6.6,4.6c1.4-0.6,2.3-2.1,2.7-3.6c1-3.1,0.8-6.6-0.4-9.7c2.7-0.3,5.1,1.8,7.6,2.8c2.5,1.1,6.5,0.2,6.4-2.5
		c-0.1-2.6-3.9-3.8-4.3-6.3c0.8-0.5,1.6-0.9,2.4-1.4c2.7,2,7.2,3.6,8.8,0.6c1.7-3.3-3.1-6.1-4.6-9.5c2.1-1,4.2,1.2,6.4,1.6
		c1.9,0.3,3.9-1.1,4.4-3c0.5-1.9-0.7-4-2.5-4.7c-1.4-0.5-0.9-2.8,0.5-3.4s2.9,0.1,4.3,0.6c1.4,0.5,3,0.9,4.2,0
		c2.1-1.5,0.6-4.8-1.2-6.7s-4-4.4-2.7-6.6c2.6,0.7,5.2,1.3,7.8,2c2.3,0.6,4.1-2.4,3.4-4.6c-0.7-2.2-2.8-3.6-4.8-4.9
		c-1.5-1,0.4-3.4,2.2-3.4s3.6,1.2,5.4,0.7c2.3-0.6,3-3.7,2.1-5.8c-0.9-2.2-2.9-3.6-4.9-4.9c0.3-1.4,2-1.9,3.4-1.8
		c1.4,0.1,2.8,0.7,4.2,0.4c2.7-0.6,3.6-4.5,2.2-6.9c-1.4-2.5-4.1-3.8-6.7-5c-1.1-0.5-0.7-2.3,0.3-3.1c1-0.7,2.3-1,3.2-1.8
		c1.8-1.6,0.9-4.8-1-6.2c-2-1.4-4.6-1.4-7-1.3c0.3-3.8,4.8-6.6,4.2-10.4c-0.4-2.4-2.8-3.9-5.2-4.2c-2.4-0.2-4.7,0.6-7,1.4
		c-1.2-3.2,1.5-7.1-0.4-9.9c-2.1-3.1-6.9-1.3-10,0.8c-1.6-1.5-0.4-4.2-0.4-6.4c0-4.3-6.5-6.6-9.3-3.4c-1.1,1.3-3.4,0-3.9-1.6
		c-0.5-1.7,0-3.4-0.3-5.2c-0.7-4.7-7.7-6.8-10.9-3.3c-0.9,1-2.6,0.2-3.1-1c-0.5-1.2-0.4-2.5-0.5-3.8c-0.7-5-7.8-7.6-11.5-4.3
		c-0.9-2.5-0.5-5.3-0.9-7.9c-0.4-2.6-2.2-5.5-4.8-5.5c-2.3,0-4,2-6.1,2.9s-5.5-0.8-4.4-2.8c1.9-3.3-0.3-7.8-3.9-9.2
		c-3.5-1.4-7.6-0.1-10.6,2.2c-0.5-3.3-1.1-6.7-3.2-9.3s-6.1-3.9-8.8-1.9c-1.9,1.4-2.6,3.8-3.2,6.1c-1.8-3.5-3.9-7.3-7.5-9
		c-3.6-1.7-9,0.3-9.1,4.2c0,1.6,0.8,3.1,0.6,4.7c-0.1,1.6-2.1,3.1-3.2,2c-1.9-1.8-3.9-3.8-6.5-4.2c-2.6-0.4-5.7,1.4-5.5,4
		c0.2,1.9,2,3.3,2.9,5c0.9,1.8-0.5,4.7-2.2,3.8c-2.2-1.2-4.6-2.5-7.2-2.3s-5.2,2.4-4.7,4.9c0.6,3.1,5.1,5.5,3.5,8.1
		c-2.5-1.2-5.2-2.5-8-2.1c-2.8,0.4-5.4,3.1-4.5,5.8c0.5,1.4,1.7,2.3,2.7,3.3s2.1,2.3,1.9,3.7c-0.2,1.4-2.3,2.5-3.1,1.3
		c-2.3-3-7.5-3.1-9.8-0.1s-1,8,2.5,9.5c1.2,0.5,0.6,2.6-0.7,3c-1.3,0.4-2.6-0.2-3.9-0.7c-2.2-0.9-4.9-1.2-7,0
		c-2.1,1.2-3.1,4.3-1.5,6.1C464.6,700.9,466.7,703.2,468.8,705.5z"/>
</g>
<g id="Allora_2_1_" class="st2">
	<path class="st1" d="M1025.9,1629.2c-15.4-19.8-29.7-40.5-42.7-61.9c-3.3-5.4-6.5-11-8-17.1c-1.5-6.1-1.2-13,2.3-18.3
		c2.9-4.4,7.7-7.2,12.3-9.9c36.6-21.3,72.4-44.1,107.1-68.3c7.8-5.5,16.3-11.2,25.9-11c13.3,0.3,23.3,11.7,31.4,22.2
		c8.8,11.3,17.5,22.5,26.3,33.8c5,6.5,10.1,13,13.4,20.5c3.3,7.5,4.7,16.2,2.1,23.9c-2.7,8-9.3,14.1-15.8,19.5
		c-35.1,28.8-76.8,48.2-118.1,67c-5.9,2.7-12,5.5-18.5,6.1C1037.1,1636.3,1030,1634.4,1025.9,1629.2 M1124.8,1445.3
		c-4.2-0.2-8.3,1.1-12.2,2.7c-10.9,4.5-20.6,11.4-30.3,18.2c-29.9,20.9-60.7,40.4-92.4,58.5c-3.1,1.8-6.3,3.6-8.6,6.3
		c-4.3,4.9-5.1,12.2-3.6,18.5c1.5,6.4,4.9,12.1,8.4,17.6c12.8,20.4,26.7,40.2,41.6,59.2c3.7,4.7,10.1,6.4,16,5.9
		c5.9-0.5,11.4-3,16.9-5.5c38.5-17.4,77.2-35.4,111.1-60.7c6.3-4.7,12.5-9.7,17-16.1s7.2-14.5,5.8-22.2c-1.3-6.9-5.7-12.8-9.9-18.4
		c-11.5-15.2-23-30.4-34.5-45.6C1143.5,1455.1,1135.6,1445.7,1124.8,1445.3z"/>
	<path class="st1" d="M1109.2,1467.5c3.4-1.9,7.7-1.5,11.2,0.1c3.5,1.6,6.4,4.3,9,7.2c6.2,6.6,11.5,13.9,16.8,21.3
		c4.7,6.5,9.3,12.9,14,19.4c4.4,6.1,9,13.2,7.4,20.5c-1.2,5.2-5.3,9.2-9.3,12.7c-30.1,26.3-66.3,44.4-102.2,62.1
		c-2.1,1-4.2,2.1-6.5,2.1c-3.9,0-7.2-2.8-10.1-5.5c-3.8-3.6-7.7-7.3-10.9-11.5c-3-4-5.4-8.5-7.7-13c-3-5.8-6.1-11.7-9.1-17.5
		c-2.2-4.2-4.4-8.4-5.4-12.9c-1.9-8.5,0.6-17.9,6.6-24.3c2.9-3.1,6.5-5.5,10-7.8C1051,1501.7,1079.8,1484.1,1109.2,1467.5
		 M1158.2,1545.1c2.8-2.5,5.7-5.2,6.5-8.8c1.2-4.8-1.6-9.7-4.3-13.9c-10.2-15.8-21.5-31-33.8-45.2c-2.1-2.5-4.3-4.9-7.1-6.5
		s-6.4-2.1-9.3-0.6c-29.9,16-58.9,33.7-86.9,52.9c-2.9,2-5.9,4.1-8.3,6.7c-4.9,5.3-7.2,12.9-6.1,20c0.8,5.1,3.2,9.9,5.6,14.5
		c7.6,14.8,15.4,29.9,27.8,41c3.1,2.8,7.4,5.4,11.2,3.6C1090.2,1590.6,1127.5,1572.2,1158.2,1545.1z"/>
	<path class="st1" d="M1014.6,1468.2c1.6-10.4,13.6-17.7,23.6-14.4c-0.6-6.1,2.6-12.5,7.9-15.6c5.3-3.1,12.4-2.9,17.5,0.6
		c-1.5-5.5,0.9-11.8,5.7-15c4.8-3.1,11.5-2.8,16,0.7c-1.4-5.3,1.4-11.5,6.3-13.9c4.9-2.5,11.5-1.1,14.9,3.2
		c-0.4-6.7,4.6-13.3,11.1-14.7c6.5-1.5,13.8,2.3,16.4,8.5c2.6-4.6,7.8-8,13.1-7.2c5.2,0.8,9.5,6.5,7.8,11.5
		c3.6-3.2,7.8-5.9,12.6-6.6s10.1,1.2,12.5,5.4c2.4,4.2,0.6,10.5-4,11.9c4.9,2.1,10.6-2.7,15.6-0.9c3.3,1.2,5,5.1,4.9,8.6
		c-0.1,3.5-1.8,6.8-3.3,9.9c3.9-5.2,13-4.8,16.8,0.5s1.5,13.7-4.3,16.8c5.2-3.4,12.6-4.6,17.4-0.7c4.9,3.8,4.2,13.4-1.8,14.9
		c4.7-1.5,10.4-0.3,13.4,3.6s2.2,10.5-2.1,12.8c4.5-2.8,11.2-1.2,14,3.4s0.9,11.3-3.7,13.9c4.2-4.4,12.6-0.5,13.6,5.4
		c1,6-3.7,11.7-9.3,14c4.7,2,9.7,4.2,12.9,8.2c3.2,4,4.1,10.5,0.5,14.1c-5.1,5.1-14.5,1.6-20.5,5.7c4.4,1.1,8,5.1,8.6,9.6
		c0.6,4.5-1.7,9.3-5.6,11.6c-6.2,3.6-14,0.8-20.6-2c-1.2,6.8,7,14.8,2,19.5c-1.8,1.7-4.5,1.8-6.9,1.7c-6.5-0.1-13-0.9-19.3-2.1
		c5.1,5.2,3.6,15.3-2.8,18.8c-6.5,3.6-14.5,0.4-21.3-2.7c2,4.7,0.7,10.5-3.1,13.9c-3.8,3.4-9.7,4.1-14.2,1.7
		c-2.8-1.5-4.1,3.3-4.7,6.4c-1.1,5.5-6.7,9.2-12.3,9.8c-5.6,0.7-11.1-1-16.5-2.7c2.9,5.6,1.7,13-2.8,17.4
		c-4.5,4.4-11.9,5.4-17.4,2.3c0.9,7.5-3.6,15.4-10.5,18.5c-6.9,3.1-15.8,1.2-20.8-4.5c1.5,6.8-3,14.3-9.6,16.2
		c-6.6,2-14.4-1.9-16.9-8.3c-1.3,6.9-6.8,13.3-13.8,14c-7,0.7-14.2-6.3-12.3-13c-3.1,6.6-12,9.8-18.5,6.5
		c-6.5-3.3-9.3-12.4-5.7-18.8c-3.5,1.3-7.2,2.6-11,2.5c-3.8-0.1-7.7-2.1-9.1-5.6c-2.4-6.3,4.4-12.8,3.8-19.6
		c-3.6,3.3-9.6,3.7-13.6,0.9c-4-2.8-5.7-8.6-3.8-13.1c1.7-4.1,5.9-7.3,5.7-11.7c-4.5,4.9-13.5,4.3-17.4-1.1
		c-3.9-5.4-1.6-14.1,4.5-16.9c-4.9,0.7-10.5,1.2-14.1-2.1c-3.3-3.1-3.6-8.5-1.8-12.6s5.2-7.4,8.5-10.5c-6.1,1.6-13.7,2.7-17.6-2.3
		c-2.8-3.6-1.9-9.1,0.9-12.7c2.7-3.7,6.8-6,10.8-8.2c-9.2,1.2-17.5-9.7-13.9-18.3c2.9-6.9,11-10,18.4-11c-6.2-3.5-5.6-13.5-0.2-18.2
		c5.4-4.7,13.2-5,20.2-3.9c-1.5-6.7,1.6-14.2,7.4-17.8s13.9-3.3,19.3,0.8c-3.1-5.9-1.2-14,4.1-18S1009.7,1463.6,1014.6,1468.2
		 M1000.4,1661c-1.8,4.5-3.6,9.2-3,13.9c0.6,4.8,4.6,9.4,9.4,9c2.3-0.2,4.4-1.6,6.2-3.1c3.8-3.1,6.9-6.9,9.2-11.1
		c3.1,4.5-0.6,11.2,2.1,16c1.8,3.3,6.3,4.4,9.8,3.1c3.5-1.3,5.9-4.6,7-8.2c0.6-1.8,0.9-3.9,2.2-5.3c1.3-1.4,4.1-1.7,4.9,0.1
		c1.8,4.1,5.7,7.5,10.2,7.9c4.5,0.4,9.3-2.7,10-7.2c0.4-2.2-0.3-4.6,0-6.8c0.3-2.3,2.1-4.7,4.4-4.2c2.8,5.6,9.5,8.8,15.6,7.4
		c6-1.4,10.8-7.2,10.8-13.4c0-3.5-0.8-8.1,2.3-9.8c2.2,4.1,7.4,6.3,11.9,5.2c4.5-1.2,7.9-5.6,7.8-10.3c0-2.5-1-5-0.7-7.5
		c0.3-2.5,2.7-5.1,5-4.1c4.6,1.8,9.5,3.7,14.4,3c4.9-0.6,9.7-4.7,9.4-9.7c-0.3-4.1-3-9.8,0.9-11c3.2,4,8.4,6.8,13.5,6
		c5.1-0.8,9.3-6.2,7.9-11.1c-0.5-1.6-1.4-3.1-1.7-4.7c-0.3-1.7,0.6-3.7,2.3-3.8c4.6,3.4,9.7,6.9,15.4,7c5.7,0.1,11.8-5.1,10.4-10.6
		c-0.7-2.7-3-4.8-3.7-7.5s1.9-6.4,4.3-4.9c4.6,3,9.7,6,15.2,5.8s11-5.6,9.3-10.9c-1.3-4-6.1-8.5-2.8-11.2c2.6-2.1,5.9,1,8.7,2.8
		c5.4,3.4,13.7,0.5,15.7-5.6c2-6.1-2.8-13.4-9.2-13.8c2.3-4.4,8.4-4.5,13.3-4.7c4.9-0.2,11.2-2.4,11.2-7.3c0-2.6-1.8-4.8-3.8-6.4
		c-4.2-3.5-9.7-5.5-15.2-5.5c1.3-4.4,5.9-6.7,9.1-9.9s4.4-9.8,0.1-11.4c-4.1-1.5-8.2,3.6-12.5,2.7c-0.2-1.5-0.4-3.1-0.6-4.6
		c4.8-2.8,10.1-8.9,6.5-13.1c-4-4.7-11.3,1-17.5,1c-0.2-3.8,4.5-5.7,6.4-8.9c1.6-2.8,0.8-6.8-1.8-8.7c-2.6-1.9-6.6-1.5-8.8,0.9
		c-1.6,1.8-4.9-0.4-4.9-2.9s1.9-4.4,3.6-6.2c1.7-1.8,3.3-4.1,2.7-6.5c-1-4.2-7.1-3.9-11-2.3s-9.3,3.4-11.9,0c2.7-3.6,5.3-7.2,8-10.8
		c2.3-3.1-1.2-7.8-5-8.1s-7.4,2-10.5,4.3c-2.5,1.8-5.1-2.7-3.9-5.5s4-4.9,4.4-7.9c0.4-3.9-3.8-7-7.7-6.9c-3.9,0.1-7.4,2.3-10.7,4.4
		c-2-1.3-1.7-4.3-0.6-6.4c1.1-2.1,2.8-3.9,3.2-6.2c0.7-4.6-4.7-8.3-9.3-7.7c-4.6,0.6-8.4,3.9-11.8,7.1c-1.5,1.4-4-0.4-4.5-2.4
		c-0.5-2,0-4.2-0.8-6.1c-1.4-3.7-6.9-4.5-10.2-2.3c-3.4,2.2-5.1,6.1-6.4,9.9c-5.7-2.8-7.1-11.6-13.3-13c-3.9-0.9-7.8,1.8-9.7,5.4
		c-1.8,3.5-2,7.6-2.2,11.6c-5.6-0.2-10.1-6.8-15.6-5.6c-6.1,1.3-6.3,9.8-5.1,16c-3.3,1.6-6.7-2-10.1-3.3
		c-6.6-2.6-14.3,5.8-11.1,12.1c1.3,2.6-2.1,5.3-5,5c-2.9-0.3-5.3-2.1-8.1-2.8c-7.6-1.9-15.4,7.5-12,14.6c0.9,1.9-1.3,4.1-3.5,4.2
		c-2.1,0.1-4.1-1-6.2-1.5c-8.1-2.1-16.6,7.2-13.8,15.1c-4.4-0.2-8.5-2.5-12.8-3.6c-4.3-1-9.9-0.1-11.6,3.9
		c-1.5,3.5,0.6,7.4,0.7,11.2c0.1,3.8-4.7,8-7,5c-3.9-4.9-12.2-4.4-16.6,0.2c-4.3,4.5-5,11.6-3.3,17.7c-5.4-1.3-11-2.5-16.3-0.9
		s-9.8,7-8.5,12.4c0.9,3.8,4.2,6.4,7.3,8.8c-6.6,0.6-13.7,1.4-18.5,5.8c-4.8,4.5-5.2,14,0.8,16.7c2.4,1.1,5.3,0.8,7.6,2
		c2.4,1.2,3.5,5.2,1.1,6.2c-4,1.7-8.3,3.6-10.6,7.3c-2.3,3.7-1.4,9.7,2.8,11c3.1,1,6.3-1,9.6-1.2s7,3.8,4.4,5.8
		c-3.3,2.7-6.8,5.6-8.1,9.6c-1.4,4,0.5,9.4,4.6,10.3c5.1,1.1,11.6-4.4,14.7-0.2c-3.4,3.1-7.1,6.5-8.2,11s1.5,10.2,6.1,10.6
		c2.4,0.2,4.6-1.1,6.8-2.1s4.8-1.8,6.9-0.6c2.1,1.2,2.4,5,0.1,5.6c-6.1,1.6-9.4,9.6-6.3,15s11.7,6.6,16.1,2.1
		c1.6-1.6,4.5,0.7,4.3,2.9c-0.2,2.2-2,3.9-3.6,5.6c-2.7,2.9-4.9,6.8-4.4,10.7c0.5,4,4.7,7.5,8.4,6.1
		C990.6,1664.6,995.5,1662.8,1000.4,1661z"/>
</g>
<g id="Allora_2_2_" class="st0">
	<path class="st1" d="M414.8,2464.3c10.6-29.1,22.9-57.5,36.9-85.1c3.5-6.9,7.2-13.9,12.6-19.6c5.4-5.6,12.8-9.7,20.6-9.5
		c6.5,0.2,12.6,3.4,18.4,6.4c46.1,24.4,93.3,46.9,141.3,67.4c10.8,4.6,22.4,9.8,28.4,19.9c8.4,14.1,2.9,32-2.7,47.4
		c-6,16.5-12.1,33-18.1,49.6c-3.5,9.5-7,19.1-12.7,27.4c-5.7,8.3-13.8,15.5-23.7,17.8c-10.2,2.4-20.8-0.5-30.7-3.8
		c-53-17.9-100.5-48.8-147.1-79.7c-6.7-4.4-13.6-9-18.4-15.4S412.1,2471.8,414.8,2464.3 M671.6,2447.6c-2.6-4.5-6.6-8-10.8-11
		c-11.8-8.5-25.4-14.1-38.8-19.8c-41.3-17.6-81.9-37.1-121.5-58.4c-3.9-2.1-7.8-4.2-12.2-4.9c-8-1.3-16,2.6-21.7,8.3
		c-5.7,5.7-9.4,13-12.9,20.3c-13,26.7-24.6,54.1-34.7,82.1c-2.5,6.9-0.1,14.8,4.3,20.6s10.6,10,16.7,14.1
		c43.4,28.9,87.4,57.7,135.9,76.5c9,3.5,18.3,6.7,28,7.2c9.7,0.5,19.8-1.9,26.9-8.4c6.4-5.9,9.7-14.3,12.8-22.3
		c8.4-22,16.8-43.9,25.1-65.9C673.6,2473.5,678.2,2459.2,671.6,2447.6z"/>
	<path class="st1" d="M638.2,2445.8c4.2,2.3,6.6,7,7.2,11.7s-0.4,9.5-1.6,14.1c-2.9,10.8-7.1,21.1-11.3,31.4
		c-3.7,9.1-7.4,18.2-11.1,27.3c-3.5,8.6-7.9,18.1-16.6,21.1c-6.2,2.2-13.1,0.5-19.4-1.4c-47.1-14.3-89.7-40.4-131.6-66.3
		c-2.4-1.5-4.9-3.1-6.4-5.5c-2.6-4.1-1.8-9.4-0.8-14.2c1.3-6.4,2.6-12.8,4.9-18.9c2.2-5.8,5.4-11.2,8.6-16.6c4.1-7,8.2-14,12.3-21
		c2.9-5,5.9-10,10-14.1c7.7-7.6,19.1-11,29.7-9c5.1,1,10,3.2,14.7,5.4C564.5,2407.2,601.7,2425.9,638.2,2445.8 M589,2547.6
		c4.4,1.3,9.1,2.5,13.5,1c5.8-2,9.1-8,11.7-13.5c9.9-21,18.4-42.7,25.3-64.8c1.2-3.8,2.3-7.7,2.1-11.7c-0.2-4-2-8.1-5.5-10.1
		c-36.3-20.8-73.7-39.6-112-56.3c-4-1.8-8.1-3.5-12.4-4.3c-8.7-1.6-18.2,0.9-24.9,6.7c-4.9,4.2-8.2,9.8-11.5,15.3
		c-10.5,17.6-21.2,35.6-24.7,55.8c-0.9,5-0.8,11.3,3.6,14C497.2,2506.2,540.7,2533.2,589,2547.6z"/>
	<path class="st1" d="M575.7,2347.3c11.9-5.1,27.4,2.7,30.4,15.2c6-4.6,14.7-5.4,21.4-1.9c6.7,3.5,11.1,11.1,10.8,18.6
		c4.8-5.2,13-6.8,19.4-3.9c6.4,2.9,10.5,10.2,9.7,17.2c4.7-4.9,12.9-6.1,18.7-2.5c5.8,3.5,8.6,11.3,6.4,17.7
		c6.7-4.7,16.9-3.8,22.7,2c5.8,5.8,6.6,16,1.8,22.7c6.5-0.3,13.5,3,16.1,9c2.6,6-0.6,14.2-7,15.7c5.7,1.7,11.3,4.3,15.1,8.9
		c3.8,4.6,5.3,11.3,2.5,16.6c-2.8,5.2-10.6,7.5-15.1,3.6c1,6.5,9.8,9.3,11.1,15.7c0.9,4.2-2,8.6-5.8,10.7c-3.8,2.1-8.2,2.6-12.6,3
		c8,0.7,13.6,10.5,10.5,17.9c-3.1,7.4-13.4,10.5-20.3,6.5c7,3.2,13,10.1,12.2,17.8s-11.3,13.1-16.8,7.8c4.6,3.9,7.1,10.6,5,16.3
		c-2.1,5.7-9.5,9.2-14.8,6.2c5.9,2.9,8.6,11,5.6,16.8c-3,5.8-11.2,8.3-16.9,5.2c7.3,1.5,8.8,12.8,3.2,17.7
		c-5.6,4.9-14.6,3.7-20.7-0.6c1,6.3,1.9,12.9-0.2,18.9c-2.1,6-8.3,11.1-14.5,9.7c-8.7-2-11.2-14.1-19.3-17.7
		c1.7,5.3-0.1,11.6-4.4,15.2c-4.3,3.6-10.8,4.3-15.8,1.7c-7.8-4.1-10-14.1-11.4-22.8c-7.9,3.2-10.8,17-19.1,14.8
		c-2.9-0.8-4.8-3.5-6.3-6.1c-4.1-6.9-7.6-14.1-10.4-21.6c-2.1,8.8-13.6,13.8-21.5,9.3c-8-4.5-9.9-14.9-11.1-24
		c-3.6,5.1-10.6,7.6-16.6,5.8c-6-1.7-10.6-7.5-11-13.7c-0.2-3.9-6.2-2.1-9.8-0.8c-6.5,2.4-14-1.1-18.3-6.5c-4.3-5.4-6.2-12.3-8-19
		c-3.9,6.7-12.5,10.3-20,8.4c-7.5-1.8-13.4-9-13.8-16.7c-7.3,5.8-18.4,6.3-26.2,1.1s-11.5-15.7-8.8-24.7c-6.1,5.9-16.8,6.2-23.2,0.5
		c-6.4-5.6-7.5-16.3-2.3-23.1c-8.1,3.1-18.4,1.6-23.6-5.2c-5.3-6.9-2.7-18.9,5.6-21.3c-8.9,1.1-18-6.2-18.8-15.2s6.9-17.8,15.9-18.3
		c-3.7-2.8-7.4-5.8-9.8-9.8c-2.3-4-2.9-9.4-0.1-13.2c5-6.7,16.3-3.7,22.9-8.8c-5.8-1.6-10.1-7.6-9.8-13.7s5.3-11.5,11.3-12.5
		c5.4-0.9,11.5,1.4,16-1.6c-8.1-1.6-13.3-11.3-10.2-18.9c3.1-7.6,13.7-10.9,20.6-6.4c-3.9-4.6-8.1-10.2-6.9-16.1
		c1-5.5,6.5-9.3,12-10.1c5.5-0.8,11.1,0.6,16.5,2c-5.6-5.3-11.8-12.6-9.1-19.8c2-5.3,8.3-7.9,13.9-7.4c5.6,0.4,10.7,3.3,15.6,6
		c-7.3-8.8-1.2-24.6,10-26.4c9.1-1.4,17.6,5,23.5,12.1c-0.4-8.7,10.5-14.6,18.9-12.1c8.4,2.6,13.9,10.6,17.2,18.6
		c6-5.9,15.9-7.6,23.5-3.9s12.5,12.3,11.7,20.7c4.2-7.1,13.8-10.4,21.5-7.4C572.5,2330.3,577.4,2339.3,575.7,2347.3 M364.9,2458.3
		c-5.8,1.1-11.9,2.2-16.5,6c-4.6,3.8-6.8,11-3.2,15.7c1.8,2.3,4.5,3.6,7.3,4.5c5.7,1.9,11.7,2.7,17.7,2.4
		c-2.7,6.2-12.1,6.7-15.3,12.6c-2.2,4-0.5,9.5,3.2,12.2c3.7,2.8,8.7,3.2,13.2,2c2.3-0.6,4.6-1.6,7-1.2c2.3,0.4,4.4,3.2,3.1,5.2
		c-3.2,4.6-4.2,10.8-1.7,15.8c2.5,5,8.9,7.9,14,5.8c2.6-1.1,4.6-3.2,7.1-4.4c2.5-1.2,6.3-0.8,7.3,1.8c-4,6.5-3,15.7,2.4,21.1
		c5.4,5.4,14.6,6.5,21.1,2.6c3.7-2.3,7.9-6.1,11.7-4c-2.8,5-1.8,11.8,2.4,15.8c4.2,3.9,11.1,4.6,15.9,1.5c2.6-1.7,4.6-4.3,7.4-5.6
		c2.8-1.3,7-0.5,7.6,2.5c1.1,6,2.4,12.3,6.2,17c3.9,4.7,11.3,7.1,16.2,3.5c4-3,8.3-9.5,12.1-6.3c-2.1,6-1.6,13.2,2.6,18
		c4.2,4.8,12.6,5.7,16.8,1c1.4-1.5,2.3-3.5,3.8-4.9s4.3-1.8,5.5-0.1c-0.5,7-0.9,14.6,2.7,20.7s13,9.1,17.9,3.9
		c2.4-2.5,3.1-6.3,5.5-8.8c2.4-2.5,8-2.2,8,1.3c-0.1,6.8,0,14.1,3.9,19.7c3.9,5.6,13.1,7.9,17.4,2.6c3.3-4,5-11.9,9.8-10.2
		c3.8,1.3,2.8,6.9,2.8,10.9c0,7.9,8.4,14.6,16.1,12.8c7.7-1.8,12.2-11.7,8.5-18.6c6.1-0.4,10.2,5.8,13.6,10.8c3.4,5,9.8,10.1,15,6.9
		c2.7-1.7,3.8-5,4.2-8.2c0.9-6.7-0.6-13.7-4.1-19.4c5.4-1.5,10.8,1.8,16.3,3.1s13.2-1.8,12-7.3c-1.1-5.3-9.1-6.2-10.9-11.3
		c1.5-1.2,2.9-2.5,4.4-3.7c6.1,3.2,15.8,4.8,17.9-1.8c2.3-7.3-8.4-11.2-12.5-17.7c3.8-2.7,8.9,1,13.5,0.9c4-0.1,7.6-3.6,7.9-7.5
		c0.3-4-2.8-7.9-6.7-8.6c-3-0.5-2.8-5.4-0.2-6.9c2.6-1.5,5.9-0.8,8.8-0.3s6.4,0.8,8.5-1.4c3.7-3.8-0.5-9.9-4.8-13
		c-4.3-3.1-9.6-7.5-7.7-12.4c5.5,0.4,11,0.9,16.5,1.3c4.8,0.4,7.4-6.3,5.2-10.5s-6.9-6.4-11.4-8.2c-3.5-1.4-0.5-7.1,3.2-7.6
		s7.7,1.1,11.1-0.6c4.3-2.1,4.8-8.5,2.2-12.5s-7.2-6.3-11.5-8.3c0-2.9,3.4-4.6,6.3-4.8c2.9-0.2,5.9,0.4,8.6-0.7
		c5.3-2.2,5.6-10.3,2-14.8c-3.7-4.5-9.6-6.2-15.2-7.7c-2.5-0.7-2.2-4.5-0.5-6.3s4.3-2.8,5.9-4.8c3-3.9,0.2-10.1-4.3-12.2
		c-4.5-2.1-9.7-1.3-14.5-0.2c-0.8-7.8,7.5-15,4.9-22.4c-1.6-4.6-7-7-11.9-6.6c-4.9,0.4-9.3,2.8-13.5,5.3c-3.4-6,0.5-14.9-4.3-19.9
		c-5.3-5.5-14.4-0.2-20,5.1c-3.8-2.5-2.3-8.3-3.1-12.7c-1.6-8.6-15.4-11.1-19.9-3.7c-1.9,3-6.9,1.3-8.5-1.9
		c-1.6-3.2-1.3-6.9-2.4-10.3c-3-9.2-17.9-11.1-23.1-2.9c-1.4,2.2-5.1,1.3-6.6-0.9c-1.5-2.2-1.6-5-2.4-7.5
		c-3.1-9.8-18.4-12.6-24.8-4.6c-2.7-4.7-2.9-10.5-4.6-15.7c-1.7-5.2-6.3-10.4-11.7-9.5c-4.6,0.7-7.4,5.5-11.3,8.1s-11.4,0.4-9.8-4
		c2.7-7.3-3.4-15.7-11-17.2c-7.6-1.6-15.4,2.4-20.6,8.1c-2.1-6.5-4.6-13.2-9.8-17.6s-13.7-5.7-18.5-0.8c-3.4,3.4-4,8.6-4.4,13.4
		c-4.9-6.5-10.3-13.4-18.2-15.5s-18.1,3.7-16.9,11.7c0.5,3.2,2.6,6,2.9,9.3c0.3,3.2-3.1,7-5.8,5.2c-4.4-3.1-9.2-6.3-14.5-6.3
		c-5.4,0-11,4.9-9.6,10c1,3.9,5.2,6,7.5,9.2c2.4,3.2,0.6,9.7-3.2,8.4c-5-1.7-10.3-3.4-15.4-2.2s-9.6,6.6-7.8,11.6
		c2.2,6,12.1,9.2,9.8,15.2c-5.5-1.6-11.4-3.2-16.8-1.4c-5.5,1.7-9.8,8.2-7.1,13.3c1.4,2.6,4.2,4.1,6.7,5.7c2.5,1.6,5,3.9,5.2,6.9
		c0.2,3-3.7,5.8-5.9,3.7c-5.6-5.3-16.2-3.6-19.8,3.3c-3.6,6.8,0.8,16.5,8.3,18.3c2.7,0.6,2.2,5.1-0.3,6.4c-2.5,1.3-5.4,0.4-8.1-0.1
		c-4.8-0.9-10.3-0.7-14.1,2.4c-3.8,3.1-4.8,9.8-0.9,12.8C354.8,2450.4,359.9,2454.4,364.9,2458.3z"/>
</g>
<g id="Allora_2_3_" class="st2">
	<path class="st1" d="M1153.6,3436.9c11.9-12.2,24.5-23.7,37.8-34.4c3.3-2.7,6.8-5.4,10.8-7c4-1.6,8.6-2,12.5-0.1
		c3.2,1.6,5.6,4.5,7.8,7.4c17.7,22.7,36.2,44.7,55.7,65.9c4.4,4.8,9,10,9.8,16.4c1,9-5.8,16.7-12.1,23.2
		c-6.8,6.9-13.6,13.9-20.3,20.8c-3.9,4-7.8,8-12.6,10.9c-4.7,2.9-10.5,4.6-15.9,3.6c-5.7-1.1-10.3-4.9-14.6-8.9
		c-22.6-21-39.4-47.3-55.9-73.4c-2.4-3.8-4.8-7.6-5.8-11.9S1150.5,3440.1,1153.6,3436.9 M1286.4,3486.8c-0.3-2.8-1.5-5.5-2.9-8
		c-4-6.9-9.6-12.8-15-18.7c-16.8-18.2-32.7-37.2-47.8-56.9c-1.5-1.9-3-3.9-5-5.2c-3.7-2.4-8.7-2.3-12.8-0.7
		c-4.1,1.6-7.7,4.4-11.1,7.3c-12.6,10.5-24.6,21.6-36,33.4c-2.8,2.9-3.4,7.4-2.5,11.3s3.1,7.4,5.2,10.8c15.2,24.3,30.8,48.8,51,69.2
		c3.7,3.8,7.7,7.5,12.4,10c4.7,2.4,10.4,3.5,15.5,1.9c4.5-1.5,8.1-5,11.5-8.3c9.2-9.1,18.4-18.3,27.5-27.4
		C1281.5,3500.2,1287.1,3494,1286.4,3486.8z"/>
	<path class="st1" d="M1270,3478.2c1.6,2.1,1.7,5,1,7.5c-0.8,2.5-2.3,4.7-4,6.7c-3.9,4.8-8.3,9-12.8,13.2
		c-3.9,3.7-7.8,7.5-11.8,11.2c-3.7,3.5-8.1,7.3-13.2,6.8c-3.6-0.3-6.7-2.7-9.4-5.1c-20.4-17.9-35.9-40.6-51.1-63.1
		c-0.9-1.3-1.8-2.6-2-4.2c-0.4-2.6,1.3-5.1,2.8-7.3c2.1-2.9,4.2-5.8,6.7-8.4c2.4-2.4,5.3-4.4,8.1-6.4c3.6-2.6,7.3-5.2,10.9-7.7
		c2.6-1.8,5.2-3.7,8.2-4.8c5.6-2.1,12.1-1.2,17,2.2c2.4,1.7,4.3,3.8,6.2,6C1241.7,3442.2,1256.2,3460,1270,3478.2 M1222.3,3518.3
		c1.9,1.7,4,3.3,6.5,3.6c3.4,0.3,6.4-1.9,9-4.1c9.7-8.3,18.9-17.3,27.4-26.8c1.5-1.6,2.9-3.4,3.7-5.4c0.8-2,0.8-4.5-0.4-6.3
		c-13.5-18.7-28-36.6-43.5-53.7c-1.6-1.8-3.3-3.6-5.3-5c-4-2.8-9.3-3.7-14-2.3c-3.4,1-6.3,3-9.2,5.1c-9.2,6.4-18.7,13.1-25,22.4
		c-1.6,2.3-2.9,5.5-1.4,7.8C1185.5,3476.7,1201.2,3500.1,1222.3,3518.3z"/>
	<path class="st1" d="M1261,3414.6c7.1,0.1,13.2,7.6,11.8,14.5c4.1-1,8.6,0.6,11.2,3.9s3.1,8.1,1.2,11.8c3.6-1.5,8.1-0.5,10.6,2.4
		s3,7.5,1,10.8c3.5-1.4,7.8-0.1,10,3c2.1,3.1,1.8,7.6-0.8,10.3c4.5-0.9,9.3,1.9,10.9,6.1s-0.3,9.5-4.2,11.8c3.3,1.3,6.1,4.6,6.1,8.1
		c0,3.6-3.5,7-7,6.3c2.5,2.1,4.7,4.7,5.6,7.9c0.9,3.1,0.1,6.9-2.5,8.9s-7,1.4-8.4-1.6c-0.9,3.5,2.8,6.9,2,10.4
		c-0.5,2.3-2.9,3.8-5.3,4.1c-2.4,0.2-4.7-0.6-7-1.3c3.9,2.2,4.4,8.3,1.2,11.4c-3.2,3-9.1,2.3-11.7-1.3c2.8,3.2,4.2,8,2.1,11.7
		c-2.1,3.6-8.6,4.1-10.2,0.1c1.4,3,1.2,7-1.2,9.3c-2.3,2.4-6.8,2.5-8.8-0.2c2.3,2.8,1.8,7.5-1,9.7c-2.8,2.3-7.5,1.7-9.7-1.2
		c3.3,2.4,1.5,8.4-2.4,9.6c-3.9,1.2-8.2-1.4-10.3-5c-0.9,3.4-2,6.9-4.4,9.4s-6.7,3.7-9.5,1.6c-3.9-2.9-2.4-9.6-5.7-13.3
		c-0.3,3.1-2.7,5.8-5.7,6.7c-3,0.8-6.4-0.3-8.3-2.7c-3-3.8-1.8-9.4-0.5-14.1c-4.7-0.2-9.3,6.1-12.9,3.1c-1.3-1-1.6-2.9-1.8-4.5
		c-0.5-4.4-0.6-8.8-0.3-13.2c-3.1,3.9-10,3.8-12.9-0.2c-3-4.1-1.6-9.7-0.1-14.6c-3,1.7-7,1.4-9.7-0.8c-2.6-2.2-3.6-6.2-2.4-9.4
		c0.8-2-2.6-2.5-4.8-2.6c-3.8-0.2-6.8-3.7-7.7-7.4c-1-3.7-0.3-7.6,0.3-11.4c-3.5,2.5-8.6,2.3-11.9-0.3c-3.4-2.6-4.7-7.6-3.2-11.5
		c-5,1.3-10.7-1-13.4-5.4c-2.7-4.4-2.2-10.5,1.2-14.4c-4.4,1.6-9.9-0.7-11.8-5c-1.9-4.3,0-9.9,4.1-12.1c-4.8-0.3-9.6-3.3-10.7-8
		c-1.1-4.6,2.9-10.1,7.6-9.4c-4.7-1.5-7.7-7.2-6-11.9s7.5-7.4,12.1-5.6c-1.2-2.3-2.4-4.6-2.7-7.1c-0.3-2.5,0.7-5.4,3-6.6
		c4-2.2,9,1.8,13.5,0.8c-2.6-2.1-3.4-6.1-1.8-9.1c1.5-3,5.3-4.6,8.5-3.7c2.9,0.8,5.4,3.3,8.4,2.8c-3.7-2.6-4.1-8.7-0.9-11.8
		s9.4-2.4,11.8,1.5c-0.9-3.2-1.8-6.9,0.2-9.7c1.8-2.5,5.4-3.2,8.3-2.3c3,0.8,5.5,2.8,7.8,4.8c-1.6-3.9-3.1-9-0.1-12
		c2.2-2.2,5.9-2.1,8.7-0.6c2.7,1.5,4.6,4.1,6.5,6.6c-1.7-6.1,5-12.7,11-11c4.9,1.4,7.7,6.5,9.1,11.4c1.8-4.5,8.6-5,12.2-1.8
		c3.6,3.2,4.6,8.5,4.4,13.3c4.4-1.6,9.7-0.2,12.7,3.4c3,3.6,3.5,9,1.2,13.1c3.7-2.6,9.3-2.1,12.5,1.1
		C1263.2,3405.4,1263.6,3410.9,1261,3414.6 M1129.9,3422.6c-3.2-0.8-6.5-1.6-9.6-0.7c-3.1,0.9-5.9,4-5.2,7.2
		c0.4,1.6,1.5,2.8,2.6,3.9c2.4,2.2,5.3,4,8.3,5.2c-2.7,2.5-7.6,0.6-10.5,2.9c-2,1.5-2.4,4.6-1.2,6.9s3.7,3.6,6.2,4
		c1.3,0.2,2.7,0.2,3.8,1s1.5,2.6,0.4,3.3c-2.6,1.6-4.6,4.5-4.4,7.6c0.1,3.1,2.7,6,5.7,6.1c1.5,0,3-0.6,4.6-0.6c1.5,0,3.3,1,3.2,2.5
		c-3.5,2.4-5,7.2-3.6,11.2c1.5,3.9,5.8,6.6,10,6.1c2.4-0.3,5.4-1.3,6.8,0.6c-2.5,1.9-3.6,5.5-2.4,8.4c1.2,2.9,4.5,4.8,7.6,4.3
		c1.7-0.3,3.3-1.1,5-1.1s3.6,1.3,3.2,3c-0.8,3.3-1.6,6.7-0.7,9.9c0.9,3.2,4.1,6.1,7.4,5.4c2.7-0.6,6.3-2.9,7.5-0.4
		c-2.4,2.5-3.8,6.3-2.8,9.6c1,3.3,5,5.7,8.2,4.3c1-0.5,1.9-1.3,3-1.6s2.6,0.1,2.8,1.2c-1.9,3.4-3.8,7.1-3.3,11s4.5,7.5,8.1,6
		c1.8-0.7,3-2.5,4.7-3.2c1.8-0.7,4.5,0.7,3.7,2.4c-1.6,3.4-3.2,7.1-2.5,10.8s4.8,6.9,8.1,5.2c2.5-1.3,5.2-4.9,7.2-2.9
		c1.6,1.5-0.2,4.1-1.1,6.1c-1.8,4,0.9,9.2,5.2,10.1c4.3,0.8,8.8-3.1,8.5-7.4c3.1,1.2,3.8,5.2,4.4,8.5c0.6,3.3,2.6,7.3,5.9,6.9
		c1.7-0.2,3.1-1.7,4-3.1c2-3.2,2.8-7,2.3-10.7c3.1,0.4,5,3.3,7.5,5.2c2.5,1.9,7,2.1,7.7-1c0.7-2.9-3.2-5.2-2.9-8.2
		c1-0.3,2-0.6,3.1-0.9c2.4,3,6.9,6,9.4,3.2c2.8-3.1-1.7-7.5-2.3-11.7c2.5-0.5,4.2,2.5,6.6,3.5c2,0.8,4.6-0.1,5.7-2
		c1-1.9,0.4-4.6-1.4-5.8c-1.4-0.9-0.2-3.3,1.5-3.5s3.1,0.9,4.5,1.9c1.4,1,3.1,1.8,4.6,1.2c2.7-1.1,2-5.1,0.5-7.6
		c-1.5-2.5-3.1-5.9-1.1-8c2.7,1.5,5.3,2.9,8,4.4c2.3,1.3,5.1-1.5,5-4.1c-0.1-2.6-2-4.8-3.9-6.7c-1.4-1.5,1.4-3.7,3.3-3.1
		s3.6,2.3,5.7,2.2c2.6-0.1,4.4-3.2,4-5.8c-0.4-2.6-2.2-4.8-3.9-6.8c0.7-1.4,2.7-1.6,4.2-1c1.5,0.6,2.9,1.6,4.5,1.6
		c3.2,0.1,5.2-3.9,4.3-7s-3.4-5.3-5.9-7.3c-1.1-0.9-0.1-2.7,1.2-3.3c1.3-0.5,2.8-0.4,4-1.1c2.4-1.3,2.4-5,0.6-7.1s-4.6-2.9-7.2-3.4
		c1.4-4.1,7.2-5.9,7.6-10.1c0.3-2.7-2-5.1-4.5-6c-2.5-0.9-5.3-0.7-8-0.4c-0.4-3.8,3.6-7.4,2.4-11c-1.4-4-7.2-3.4-11.2-2
		c-1.3-2.1,0.7-4.7,1.3-7.1c1.1-4.7-5.2-9.1-9.2-6.4c-1.6,1.1-3.8-0.9-3.8-2.9s0.9-3.8,1.1-5.7c0.6-5.3-6.5-9.7-10.9-6.7
		c-1.2,0.8-2.9-0.5-3.1-1.9c-0.3-1.4,0.3-2.9,0.5-4.3c0.6-5.6-6.4-10.5-11.4-7.9c-0.3-3,0.9-5.9,1.2-8.9c0.3-3-0.8-6.6-3.7-7.4
		c-2.5-0.7-5,1.1-7.5,1.5c-2.5,0.4-5.8-2.4-4-4.3c3-3,1.8-8.6-1.6-11.1c-3.4-2.5-8.3-2.3-12.2-0.6c0.4-3.7,0.7-7.7-0.9-11.1
		c-1.6-3.4-5.6-5.9-9.1-4.6c-2.5,0.9-3.9,3.4-5.2,5.7c-1-4.4-2.2-9.1-5.6-11.9c-3.5-2.8-9.9-2.2-11.1,2.1c-0.5,1.7,0,3.6-0.6,5.3
		c-0.6,1.7-3.2,2.8-4.1,1.3c-1.5-2.5-3.2-5.2-5.9-6.4c-2.7-1.2-6.6-0.1-7.1,2.9c-0.4,2.2,1.2,4.2,1.7,6.3c0.5,2.2-1.9,5-3.5,3.5
		c-2.1-2-4.4-4-7.2-4.6s-6.3,1.2-6.5,4c-0.2,3.5,4,7.4,1.5,9.9c-2.4-2-5-4.2-8.1-4.5c-3.1-0.4-6.8,1.9-6.6,5.1
		c0.1,1.6,1.2,3,2.1,4.4c0.9,1.4,1.6,3.1,1,4.6c-0.6,1.5-3.2,2.1-3.8,0.5c-1.6-3.9-7.3-5.4-10.7-2.8s-3.4,8.5,0,11.1
		c1.2,0.9-0.1,3.1-1.6,3.1s-2.8-1-4.1-1.9c-2.2-1.6-5-2.7-7.6-2c-2.6,0.7-4.6,3.8-3.4,6.2
		C1126.6,3416.4,1128.2,3419.5,1129.9,3422.6z"/>
</g>
<g id="Allora_2_4_" class="st0">
	<path class="st1" d="M171.9,3839.7c-16-27.2-30.4-55.3-43.1-84.1c-3.2-7.3-6.3-14.7-7.2-22.6c-0.9-7.9,0.6-16.4,5.8-22.4
		c4.4-5,10.8-7.7,16.9-10.3c49.1-20.5,97.3-43.1,144.6-67.6c10.6-5.5,22.2-11.3,34-9.5c16.5,2.5,27.1,18.4,35.6,32.8
		c9.1,15.5,18.2,30.9,27.3,46.4c5.2,8.9,10.5,17.9,13.4,27.7c2.9,9.9,3.2,20.9-1.3,30.2c-4.7,9.6-13.8,16.1-22.9,21.7
		c-48.4,30.2-103.5,47.5-158.1,64.2c-7.9,2.4-15.9,4.8-24.1,4.5C184.6,3850.3,176.1,3846.7,171.9,3839.7 M325.1,3626.6
		c-5.2-0.9-10.5,0-15.6,1.4c-14.3,3.8-27.5,10.9-40.7,17.7c-40.6,21.2-82.3,40.5-124.7,57.8c-4.2,1.7-8.4,3.4-11.8,6.4
		c-6.1,5.4-8.3,14.3-7.5,22.5c0.8,8.2,4.2,15.8,7.6,23.3c12.7,27.5,26.7,54.4,42.1,80.5c3.8,6.4,11.6,9.6,19,9.9s14.8-1.9,21.9-4.1
		c50.8-15.4,102-31.5,148.3-57.5c8.6-4.8,17.1-10.1,23.8-17.4s11.3-16.9,10.8-26.7c-0.5-8.8-5-16.9-9.3-24.5
		c-11.9-20.8-23.7-41.6-35.6-62.5C346.8,3641.8,338.4,3628.9,325.1,3626.6z"/>
	<path class="st1" d="M302,3651.7c4.5-1.8,9.8-0.7,13.9,1.9c4.1,2.6,7.2,6.5,10.1,10.4c6.6,9.2,12,19.3,17.4,29.2
		c4.8,8.8,9.5,17.6,14.3,26.4c4.5,8.3,9.1,17.9,5.9,26.8c-2.3,6.3-8.1,10.6-13.7,14.3c-41.8,27.8-89.9,44.5-137.5,60.7
		c-2.7,0.9-5.6,1.9-8.5,1.5c-4.9-0.6-8.5-4.7-11.7-8.6c-4.2-5.1-8.4-10.3-11.7-16.1c-3.1-5.5-5.3-11.5-7.5-17.5
		c-2.8-7.8-5.7-15.5-8.5-23.3c-2-5.5-4.1-11.1-4.6-17c-1-10.9,3.7-22.2,12.1-29.2c4.1-3.4,8.9-5.8,13.7-8.1
		C223.9,3684.8,262.7,3667.6,302,3651.7 M350.4,3756.4c3.9-2.6,7.9-5.6,9.6-10c2.2-5.8-0.4-12.3-3-18
		c-10.1-21.4-21.7-42.1-34.7-61.9c-2.2-3.4-4.6-6.8-7.8-9.3c-3.3-2.4-7.7-3.7-11.5-2.3c-39.9,15.1-78.9,32.4-116.9,51.7
		c-4,2-8,4.1-11.4,7c-6.9,5.8-11.1,14.9-10.9,23.9c0.1,6.5,2.4,12.8,4.6,19c7,19.6,14.4,39.8,28,55.6c3.4,4,8.4,7.9,13.3,6.2
		C258.3,3802,307.7,3785.2,350.4,3756.4z"/>
	<path class="st1" d="M184,3637.2c3.6-12.7,19.9-19.9,31.7-14.1c0.2-7.7,5.3-15.1,12.4-18.1s15.9-1.6,21.7,3.6
		c-1-7.1,3-14.6,9.5-17.8c6.5-3.1,14.8-1.7,19.8,3.5c-0.9-6.9,3.6-14,10.1-16.3c6.5-2.3,14.5,0.5,18.1,6.4
		c0.6-8.4,7.9-15.8,16.3-16.5c8.4-0.8,16.9,5.1,19.1,13.2c4-5.3,11.1-8.7,17.5-6.9c6.4,1.8,10.8,9.7,7.8,15.6
		c5-3.4,10.7-6.1,16.8-6.2s12.4,3.2,14.7,8.8c2.3,5.6-1,13.2-6.9,14.2c5.8,3.4,13.7-1.7,19.6,1.4c3.9,2,5.4,7.1,4.7,11.5
		c-0.8,4.4-3.3,8.2-5.8,11.8c5.7-5.9,17-3.9,20.9,3.3c3.8,7.2-0.4,17.3-8.1,20.2c7-3.4,16.4-3.7,21.9,1.9c5.5,5.6,3.1,17.4-4.7,18.2
		c6.1-1.1,13,1.3,16.1,6.6s1.1,13.4-4.7,15.7c6.1-2.8,14.2,0.3,16.9,6.5c2.7,6.2-0.7,14.2-6.9,16.7c5.9-4.8,15.8,1.4,16,9
		c0.2,7.6-6.5,14-13.9,15.9c5.6,3.3,11.4,6.8,14.7,12.4s3.4,13.7-1.7,17.7c-7.2,5.6-18.3-0.3-26.4,3.8c5.3,2.1,9.1,7.6,9.2,13.3
		c0.1,5.7-3.6,11.3-8.9,13.5c-8.3,3.5-17.6-1.2-25.4-5.8c-2.6,8.3,6.4,19.6-0.6,24.6c-2.5,1.8-5.9,1.5-8.9,1
		c-8.1-1.2-16-3.2-23.8-5.8c5.5,7.4,2,19.7-6.6,23c-8.7,3.4-18.2-1.8-26.1-6.8c1.7,6.1-0.9,13.2-6.1,16.8
		c-5.2,3.6-12.8,3.5-17.9-0.2c-3.2-2.3-5.7,3.5-6.9,7.2c-2.3,6.7-9.9,10.3-16.9,10.3c-7.1-0.1-13.7-3.1-20.1-6
		c2.7,7.4,0,16.5-6.3,21.2c-6.3,4.7-15.8,4.7-22.1,0.1c-0.1,9.5-7,18.6-16.1,21.3c-9.1,2.7-19.8-1.1-25.2-9
		c0.7,8.7-6,17.3-14.6,18.7c-8.6,1.4-17.7-4.7-19.7-13.1c-2.8,8.4-10.6,15.5-19.4,15.2c-8.8-0.3-16.7-10.1-13.2-18.2
		c-4.9,7.8-16.6,10.2-24.2,5c-7.6-5.2-9.6-16.9-4.1-24.3c-4.6,1-9.4,2.1-14.1,1.3s-9.3-3.9-10.4-8.5c-2-8.3,7.6-15.3,7.9-23.8
		c-5.1,3.5-12.6,3-17.1-1.2c-4.6-4.2-5.7-11.6-2.6-17c2.8-4.8,8.5-8.1,9.1-13.7c-6.4,5.3-17.6,3.2-21.5-4.2
		c-4-7.4,0.3-17.9,8.3-20.3c-6.2,0.1-13.2-0.2-17.2-5c-3.7-4.4-3.1-11.1-0.2-16c2.9-4.9,7.7-8.4,12.3-11.7c-7.8,1-17.6,1.2-21.5-5.7
		c-2.9-5-0.8-11.6,3.1-15.7s9.5-6.3,14.8-8.4c-11.6,0-20.2-15-14.3-25c4.8-8.1,15.3-10.6,24.7-10.7c-7.2-5.3-4.7-17.7,2.7-22.7
		s17.3-4.1,25.9-1.5c-0.8-8.6,4.3-17.4,12.1-21c7.8-3.7,17.8-1.9,23.9,4.2c-2.9-7.9,0.8-17.6,8.1-21.7S178.7,3630.6,184,3637.2
		 M134.9,3875.1c-2.9,5.3-6,10.8-5.9,16.9c0,6,4.3,12.5,10.3,12.7c2.9,0.1,5.7-1.2,8.2-2.8c5.2-3.2,9.7-7.4,13.3-12.4
		c3.2,6.1-2.5,13.9,0,20.2c1.7,4.3,7.1,6.5,11.7,5.4s8.2-4.8,10.1-9.1c1-2.2,1.7-4.7,3.5-6.3c1.8-1.6,5.4-1.4,6,0.9
		c1.6,5.5,5.8,10.3,11.4,11.6s12-1.9,13.6-7.3c0.8-2.7,0.4-5.7,1.1-8.5c0.7-2.8,3.4-5.5,6.1-4.6c2.5,7.4,10.4,12.5,18.2,11.8
		c7.8-0.7,14.6-7.2,15.7-15c0.6-4.4,0.3-10.2,4.4-11.8c2.1,5.4,8.1,9.1,13.9,8.4s10.8-5.7,11.4-11.5c0.4-3.1-0.4-6.4,0.4-9.4
		c0.8-3.1,4.2-5.9,6.9-4.3c5.4,3,11.2,6.1,17.4,6.1c6.2,0,12.9-4.3,13.3-10.5c0.3-5.1-2.2-12.7,2.9-13.6c3.4,5.5,9.3,9.9,15.8,9.6
		s12.7-6.2,11.7-12.6c-0.3-2.1-1.3-4-1.4-6.1s1.4-4.5,3.5-4.4c5.2,5,10.9,10.2,18,11.2c7.1,1.1,15.6-4.4,14.7-11.5
		c-0.4-3.5-2.9-6.5-3.4-10c-0.5-3.5,3.4-7.7,6.2-5.4c5.3,4.5,11.1,9.1,18,9.7c6.9,0.6,14.7-5.2,13.3-12c-1-5.2-6.2-11.6-1.7-14.4
		c3.5-2.1,7.2,2.3,10.4,4.9c6.2,5.1,17,2.8,20.5-4.4c3.5-7.2-1.3-17.2-9.2-18.7c3.6-5,11.2-4.3,17.3-3.7c6.2,0.6,14.3-1.1,15.2-7.3
		c0.4-3.2-1.5-6.3-3.7-8.6c-4.7-5-11.2-8.4-18-9.3c2.3-5.2,8.4-7.4,13-10.9c4.5-3.5,7.1-11.6,2-14.2c-4.8-2.6-10.8,3.1-16,1.3
		c0-2,0-3.9,0-5.9c6.5-2.8,14-9.4,10.2-15.3c-4.2-6.5-14.3-0.6-22-1.6c0.4-4.7,6.6-6.3,9.5-10.1c2.5-3.2,2.1-8.3-0.8-11.1
		c-2.9-2.8-8-2.9-11.1-0.3c-2.3,2-6-1.3-5.6-4.4c0.5-3,3.1-5.2,5.5-7.1c2.4-2,4.8-4.6,4.4-7.6c-0.6-5.3-8.2-6-13.4-4.6
		c-5.2,1.4-12.1,2.7-14.8-2c3.9-4.1,7.8-8.1,11.7-12.2c3.4-3.5-0.2-9.9-4.9-10.9c-4.7-1-9.5,1.4-13.8,3.7c-3.4,1.8-5.9-4.2-3.9-7.5
		s5.8-5.4,6.8-9.1c1.2-4.8-3.6-9.3-8.4-9.9s-9.6,1.6-14,3.7c-2.3-1.9-1.4-5.6,0.3-8c1.7-2.4,4.2-4.4,5-7.2
		c1.7-5.6-4.5-11.1-10.4-11.1c-5.9,0-11.1,3.5-15.9,7c-2.1,1.5-5-1.1-5.3-3.7c-0.3-2.6,0.6-5.2,0-7.7c-1.2-4.9-7.8-6.7-12.4-4.5
		c-4.6,2.1-7.3,6.8-9.6,11.3c-6.6-4.4-7-15.6-14.5-18.4c-4.7-1.7-10.1,1-12.9,5.1s-3.8,9.2-4.6,14.1c-7-1.2-11.4-10.1-18.5-9.5
		c-7.8,0.6-9.5,11.2-8.9,19.1c-4.4,1.4-8-3.6-12-5.8c-7.8-4.3-18.7,4.9-15.8,13.3c1.2,3.4-3.5,6.3-7,5.5c-3.5-0.8-6.3-3.5-9.7-4.8
		c-9.2-3.6-20.4,6.9-17.3,16.3c0.8,2.6-2.3,4.9-5,4.6c-2.7-0.2-5-1.9-7.5-2.9c-9.7-3.9-21.8,6.3-19.7,16.5
		c-5.5-0.9-10.2-4.5-15.4-6.5c-5.2-2-12.3-1.8-15.1,3c-2.4,4.1-0.5,9.4-1,14.1c-0.5,4.8-7.1,9.2-9.5,5.1c-4-6.8-14.5-7.5-20.7-2.5
		c-6.1,4.9-8.1,13.7-6.9,21.5c-6.5-2.5-13.4-4.9-20.2-3.7c-6.8,1.2-13.3,7.1-12.6,14c0.5,4.9,4.2,8.7,7.7,12.1
		c-8.3-0.4-17.2-0.5-24,4.3c-6.8,4.8-8.8,16.6-1.7,20.9c2.8,1.7,6.4,1.8,9.2,3.7c2.7,1.9,3.5,7,0.3,7.9c-5.3,1.5-10.9,3.2-14.3,7.4
		c-3.5,4.2-3.3,11.8,1.7,14.1c3.7,1.7,8-0.2,12.1,0c4.1,0.2,8,5.8,4.6,8c-4.6,2.8-9.3,5.9-11.7,10.7s-1,11.8,4.1,13.6
		c6.1,2.1,15.1-3.6,18.3,2.1c-4.8,3.3-9.9,6.9-12,12.3c-2.2,5.4,0.1,13,5.9,14.1c3,0.6,6-0.6,8.9-1.5c2.9-0.9,6.3-1.4,8.8,0.4
		s2.2,6.7-0.9,7c-7.8,1-13.3,10.4-10.3,17.7c3,7.3,13.5,10.1,19.8,5.3c2.2-1.7,5.4,1.6,4.8,4.3c-0.6,2.8-3.2,4.6-5.3,6.4
		c-3.9,3.2-7.2,7.6-7.3,12.6c0,5,4.6,10.1,9.5,9C122.2,3878,128.5,3876.5,134.9,3875.1z"/>
</g>
</svg>
