<?xml version="1.0" encoding="utf-8"?>
<!-- Generator: Adobe Illustrator 21.1.0, SVG Export Plug-In . SVG Version: 6.00 Build 0)  -->
<svg version="1.1" id="Layer_1" xmlns="http://www.w3.org/2000/svg" xmlns:xlink="http://www.w3.org/1999/xlink" x="0px" y="0px"
	 viewBox="0 0 1366 2000" style="enable-background:new 0 0 1366 2000;" xml:space="preserve">
<style type="text/css">
	.st0{opacity:0.25;}
	.st1{fill:#D6A329;}
</style>
<g class="st0">
	<path class="st1" d="M863.3,1565.4c-15.9-7.6-29.2,13.8-35.3,30.3c-22,59-65,108.3-114.5,147.3c-49.5,39-105.6,68.5-161.3,97.9
		c-23,12.1-49.4,24.6-74,16c3.6-13.9,7.2-27.9,10.8-41.8c-9.8,7.4-25.4,5.1-32.9-4.6c-7.6-9.7-6.3-24.9,2.3-33.6
		c-11.4,2.4-24.5,0.8-32.6-7.6c-8.1-8.4-8.2-24.4,1.8-30.4c-9.2,0-18.5-0.1-27.7-0.1c0.5-10.1,1-20.3,1.5-30.4c-8.5,0-17,0-25.5,0
		c4.4-12.3,8.7-24.6,13.1-36.9c-10.2,5.9-24.8-0.3-29.1-11.3c-4.3-11,0.9-24.3,10.7-31c-12.2-5.1-24.5-10.1-36.7-15.2
		c11.4-3.1,19-15.8,16.9-27.4c-2.1-11.6-13.1-20.7-24.9-21.2c8.3-5.9,17.1-12.4,20.4-22c3.4-9.6-2.1-22.8-12.2-23.3
		c-7.3-0.3-14.1-5.3-16.7-12.1c10.7-10.1,21.4-20.2,32.1-30.3c-12.6,5.7-29.1-4.7-30.4-18.4c-1.3-13.8,11.9-26.7,25.7-26.1
		c2.3-12.2-21.2-11.6-26.2-23c-3.4-7.8,4-15.8,10.8-21c63-47.3,142.7-71.9,221.4-68.3c78.7,3.6,155.9,35.2,214.4,88
		c9.4,8.4,25.3,4.3,33.6-5.2s11.2-22.4,14.2-34.6c31.9-129.4,121.4-251.7,249.3-289.4c14.1-4.2,30-7.1,42.8,0
		c12.9,7.1,17.7,28.3,5.3,36.1c12.6-6.5,28.1-10.8,40.7-4.3c12.6,6.5,16.4,27.9,3.7,34.3c13.8-1.4,27.9-0.5,41.4,2.7
		c-0.3,11.1-2.3,22.1-5.8,32.6c9.2-5.8,22.7-2.3,28.6,6.8c5.9,9.1,4,22.2-3.7,30c18.2-6.2,36.1,21.3,23,35.4
		c9.3-0.4,18.7,3,25.6,9.3c-3.6,7.1-8.8,13.4-15.2,18.2c6.8,5.7,14.9,9.8,23.5,11.9c-3.8,7.5-8.8,14.4-14.7,20.3
		c7.1,1,14.7,2.2,19.8,7.2c5.1,5,5.5,15.2-0.9,18.3c-7,3.4-7.8,13.7-3.6,20.2s11.6,10,18.6,13.3c-11.3,4.8-21.8,11.6-30.8,20
		c10.2,1.1,20.1,8.2,22.4,18.2c2.3,10-4.9,21.8-15.1,22.5c11.8,1.4,21.4,13.1,20.4,25s-12.4,21.8-24.3,21.2
		c11.9,0.5,19.2,15.1,16,26.5c-3.3,11.4-13.8,19.3-24.7,24c11.8-2.7,19.8,14.6,13.9,25.2c-5.9,10.6-18.7,14.9-30.3,18.2
		C1115.7,1607.3,978.7,1621.1,863.3,1565.4 M880.8,1561.5c121.1,43.3,258.4,39.3,376.8-11c-9.9-4.9-15.6-17.1-13.1-27.9
		c2.6-10.8,13.1-19.1,24.2-19.1c-11.2-3.1-18.5-15.8-16.2-27.1c2.2-11.4,13.2-20.2,24.8-20.6c-20.5-2.9-24.2-38.2-4.7-45.3
		c-10.3-0.9-20.5-8.4-21.8-18.6c-1.4-10.3,8.9-21.1,18.8-18.2c-16.9-7-17-35.9-0.2-43.1c-8.1-1.1-16.7-4.2-20.8-11.3
		c-4.1-7.1-0.4-18.4,7.7-19.1c-16.1,1.6-23.8-26-9.2-33c-8-2.3-16-4.6-24-6.9c2.6-9.1,5.2-18.2,7.8-27.3c-10.2-0.8-20.4-3-30-6.4
		c2-11.3,4-22.6,6-33.9c-9,5.2-21.8,2-27.3-6.7c-5.6-8.7-3-21.7,5.5-27.6c-12.2,4.1-26.9,5.2-37-2.8c-10.1-8.1-9.8-27.7,2.6-31.5
		c-17.7,0.3-35.4,0.7-53.2,1c1.9-12.3,3.8-24.7,5.6-37c-69.6,5.7-134.5,42.9-181.5,94.6c-47,51.7-77.3,116.9-95.5,184.3
		c-4.5,16.7-8.7,34.4-20.4,47.2s-33.5,18.2-46.2,6.4c-57.2-53.4-134-85.3-212.2-88c-78.2-2.7-157.1,23.7-217.9,72.9
		c13.5,0.5,25.5,12.9,25.5,26.4c0,13.5-12,25.9-25.5,26.4c13.5-1.1,26.8,10,27.9,23.5c1.1,13.5-10.5,26.7-24,27.1
		c13.6-0.7,26.9,10.1,28.9,23.6s-7.5,27.8-20.8,31c11.6-0.1,23,7.9,26,19.1c3,11.2-3.5,24.4-14.6,27.9c11.3-2,23.5,5,27.5,15.6
		c4.1,10.7-0.4,24-10.1,30c10.5-0.7,21.8,3.2,27.6,11.9c5.7,8.8,3.6,22.6-5.8,27.3c9.2,2.9,18.4,5.8,27.7,8.6
		c-2,7.9-4.1,15.7-6.1,23.6c8.5,0.8,17.1,1.6,25.6,2.5c0.8,10.8-1.4,21.8-6.2,31.5c10.3-7.6,26.4-2.2,32.9,8.8
		c6.6,11,5.2,25.2,0.1,37c8.9-8.3,24.9-5.7,31.8,4.3s4.6,24.8-4.2,33.2c143.3-35.1,268.9-136.4,333.7-268.9
		c2.6-5.3,5.2-10.7,9.6-14.6C848.7,1551,866.4,1556.3,880.8,1561.5L880.8,1561.5z"/>
	<path class="st1" d="M1021.8,1262c19.1-17.7,45.4-35.7,69-24.7c-99.3,26.7-141,149.1-231.7,197.5c-65.3,34.8-144,25.5-217.9,20.7
		c-73.9-4.7-156.6-0.5-208.6,52.2c-5.9-0.6-3.3-10,1.1-14c55.8-51.7,140.5-52.6,216.4-47.6c75.9,5.1,158.4,11.5,221.6-30.8
		c29.3-19.7,51.4-48.1,74.5-74.8C969.9,1312.9,995.2,1286.7,1021.8,1262z"/>
	<path class="st1" d="M769.7,1565.1c-53.7,52.9-113.4,99.8-177.5,139.5c-22,13.6-47.6,26.9-72.6,20.3
		c86.5-34.7,165.7-87.4,231.2-153.7c31.3-31.7,61.8-68,104.5-80.8c32.5-9.7,67.3-4.1,101.1-1.1c36.6,3.3,74.1,3.5,109.6-6.2
		c35.5-9.7,69-30.3,88.6-61.5c5.9,4.4,2.2,13.8-2.5,19.6c-45.4,56.1-127.4,65.1-199.3,58.8c-33.5-2.9-68.2-8.1-100,2.7
		C819.6,1513.9,794.6,1540.6,769.7,1565.1z"/>
</g>
</svg>
